<svg width="59" height="60" viewBox="0 0 59 60" fill="none" xmlns="http://www.w3.org/2000/svg">
<g clip-path="url(#clip0_7459_71567)">
<mask id="mask0_7459_71567" style="mask-type:luminance" maskUnits="userSpaceOnUse" x="0" y="0" width="60" height="61">
<path d="M1.92159 30.0007C1.92159 14.5355 14.2933 1.95416 29.5007 1.95416C44.7081 1.95416 57.0798 14.5355 57.0798 30.0007C57.0798 45.4659 44.7081 58.0473 29.5007 58.0473C14.2933 58.0473 1.92159 45.4659 1.92159 30.0007ZM0 30.0007C0 46.5694 13.2081 60.0014 29.5007 60.0014C45.7933 60.0014 59.0014 46.5694 59.0014 30.0007C59 13.432 45.7919 0 29.5007 0C13.2081 0 0 13.432 0 30.0007Z" fill="white"/>
</mask>
<g mask="url(#mask0_7459_71567)">
<mask id="mask1_7459_71567" style="mask-type:luminance" maskUnits="userSpaceOnUse" x="-30" y="-122" width="341" height="346">
<path d="M170.864 -121.328L-29.0898 20.6318L110.504 223.975L310.457 82.0151L170.864 -121.328Z" fill="white"/>
</mask>
<g mask="url(#mask1_7459_71567)">
<path d="M170.864 -121.328L-29.0898 20.6318L110.504 223.975L310.457 82.0151L170.864 -121.328Z" fill="url(#paint0_linear_7459_71567)"/>
</g>
</g>
<mask id="mask2_7459_71567" style="mask-type:luminance" maskUnits="userSpaceOnUse" x="3" y="3" width="53" height="54">
<path d="M3.51367 30.0007C3.51367 44.5965 15.1478 56.4279 29.5004 56.4279C43.853 56.4279 55.4871 44.5965 55.4871 30.0007C55.4871 15.4048 43.853 3.57349 29.5004 3.57349C15.1478 3.57349 3.51367 15.4048 3.51367 30.0007Z" fill="white"/>
</mask>
<g mask="url(#mask2_7459_71567)">
<mask id="mask3_7459_71567" style="mask-type:luminance" maskUnits="userSpaceOnUse" x="-85" y="-23" width="222" height="225">
<path d="M32.3705 -22.7207L-84.0293 82.8567L19.7537 201.19L136.153 95.6122L32.3705 -22.7207Z" fill="white"/>
</mask>
<g mask="url(#mask3_7459_71567)">
<path d="M32.3705 -22.7207L-84.0293 82.8567L19.7537 201.19L136.153 95.6122L32.3705 -22.7207Z" fill="url(#paint1_linear_7459_71567)"/>
</g>
</g>
<path d="M41.0824 41.7773L32.7687 41.7615C32.0947 40.5933 30.8485 39.8074 29.42 39.8074C27.9916 39.8074 26.7454 40.5933 26.0714 41.7615L17.6898 41.7773C17.6898 41.7773 17.1346 41.7788 17.1642 42.2587C17.1642 42.2587 17.1755 42.6366 17.6644 42.6567H25.6941C25.6588 42.7817 25.6291 42.9096 25.6065 43.0389L18.7679 43.0519C18.7679 43.0519 18.2126 43.0533 18.2423 43.5332C18.2423 43.5332 18.2536 43.9111 18.7425 43.9312H25.5458C25.5514 44.0505 25.5627 44.1669 25.5769 44.2833L19.8333 44.2948C19.8333 44.2948 19.2794 44.2948 19.3077 44.7761C19.3077 44.7761 19.319 45.154 19.8078 45.1741H25.8015C26.3625 46.6498 27.7711 47.6973 29.42 47.6973C31.0689 47.6973 32.4776 46.6498 33.0386 45.1741H38.9644C39.4533 45.1526 39.4646 44.7761 39.4646 44.7761C39.4929 44.2962 38.939 44.2948 38.939 44.2948L33.2646 44.2833C33.2802 44.1669 33.2915 44.0505 33.2957 43.9312H40.0312C40.5201 43.9097 40.5314 43.5332 40.5314 43.5332C40.5596 43.0533 40.0058 43.0519 40.0058 43.0519L33.2364 43.0389C33.2138 42.9096 33.1841 42.7817 33.1488 42.6567H41.1093C41.5982 42.6366 41.6095 42.2587 41.6095 42.2587C41.6377 41.7788 41.0838 41.7773 41.0838 41.7773" fill="#231F20"/>
<mask id="mask4_7459_71567" style="mask-type:luminance" maskUnits="userSpaceOnUse" x="17" y="39" width="25" height="9">
<path d="M25.9103 41.9153L17.5287 41.9312C17.5287 41.9312 16.9734 41.9326 17.0031 42.4125C17.0031 42.4125 17.0144 42.7904 17.5033 42.8105H25.533C25.4977 42.9355 25.468 43.0634 25.4454 43.1927L18.6068 43.2057C18.6068 43.2057 18.0515 43.2071 18.0812 43.6885C18.0812 43.6885 18.0925 44.0664 18.5814 44.0865H25.3846C25.3903 44.2057 25.4016 44.3221 25.4157 44.4385L19.6721 44.45C19.6721 44.45 19.1183 44.4515 19.1465 44.9314C19.1465 44.9314 19.1578 45.3093 19.6467 45.3294H25.6404C26.2013 46.8051 27.61 47.8526 29.2589 47.8526C30.9078 47.8526 32.3165 46.8051 32.8774 45.3294H38.8033C39.2922 45.3078 39.3035 44.9314 39.3035 44.9314C39.3317 44.4515 38.7779 44.45 38.7779 44.45L33.1035 44.4385C33.1191 44.3221 33.1304 44.2057 33.136 44.0865H39.8715C40.3604 44.0649 40.3731 43.6885 40.3731 43.6885C40.4013 43.2085 39.8461 43.2057 39.8461 43.2057L33.0767 43.1927C33.0527 43.0634 33.0244 42.9355 32.9877 42.8105H40.9481C41.437 42.7904 41.4483 42.4125 41.4483 42.4125C41.4766 41.9326 40.9227 41.9312 40.9227 41.9312L32.609 41.9153C31.935 40.7472 30.6888 39.9612 29.2603 39.9612C27.8318 39.9612 26.5856 40.7472 25.9117 41.9153" fill="white"/>
</mask>
<g mask="url(#mask4_7459_71567)">
<mask id="mask5_7459_71567" style="mask-type:luminance" maskUnits="userSpaceOnUse" x="-6" y="27" width="68" height="70">
<path d="M32.1213 27.8476L-5.70898 57.9048L23.8369 96.3627L61.6672 66.3055L32.1213 27.8476Z" fill="white"/>
</mask>
<g mask="url(#mask5_7459_71567)">
<path d="M32.1213 27.8476L-5.70898 57.9048L23.8369 96.3627L61.6672 66.3055L32.1213 27.8476Z" fill="url(#paint2_linear_7459_71567)"/>
</g>
</g>
<path d="M9.92177 34.2696C9.92177 34.2696 10.3457 34.2423 10.4573 34.0153C10.5067 33.8946 10.4191 33.5871 9.92318 33.5871C9.88221 33.5871 7.12416 33.5569 7.12416 33.5569C7.12416 33.5569 5.82567 33.567 5.40179 32.6287C4.97791 31.6904 5.76774 30.6243 7.17078 30.5783C8.57383 30.5337 11.7529 30.5725 11.7529 30.5725L10.7794 31.8586L7.32055 31.8629C7.32055 31.8629 7.03797 31.8442 6.9984 32.0267C6.95319 32.2048 7.08601 32.2796 7.17361 32.2724C7.25415 32.2767 9.79037 32.2681 9.79037 32.2681C9.79037 32.2681 10.99 32.2106 11.5721 33.0052C12.1556 33.8012 12.0525 35.1131 10.446 35.514C10.0263 35.6376 7.98322 35.5786 7.98322 35.5786H5.28027L6.2665 34.2998L9.92177 34.2711V34.2696Z" fill="#231F20"/>
<path d="M12.1641 30.5768H13.6802V32.3054L16.0059 30.571H18.2807L14.8557 33.0971L18.3132 35.5714H16.0186L13.6929 33.8931V35.5772H12.1514V30.5768H12.1641Z" fill="#231F20"/>
<path d="M18.4502 30.5783H20.393L22.2326 32.6029L23.9479 30.574H25.9063L22.997 33.9334V35.5873L21.4456 35.5858L21.4442 33.9032L18.4502 30.5783Z" fill="#231F20"/>
<path d="M25.8777 31.8559L26.8258 30.5641H34.9149C35.0731 30.5598 37.6659 30.5555 37.2914 32.8071C37.249 33.093 37.0498 33.3761 36.8407 33.5715C36.5129 33.8776 36.1441 34.0773 36.1441 34.0773L37.8213 35.576H35.6694L34.1858 34.3273H32.0621V35.576H30.5362L30.5249 32.9852C30.5249 32.9852 34.4472 32.9939 35.0731 32.9881C35.5592 32.9881 35.7782 32.5944 35.7556 32.4076C35.7612 32.195 35.497 31.8903 35.0378 31.8903H29.4482V35.5946H27.8615V31.8602H25.8721L25.8763 31.8544L25.8777 31.8559Z" fill="#231F20"/>
<path d="M38.042 35.5815L40.8834 31.5281C40.8834 31.5281 41.4994 30.5194 42.1437 30.5639C42.7979 30.5639 43.2911 31.3025 43.2911 31.3025L46.189 35.5887H40.444L41.3483 34.284H43.3956L42.1381 32.4908L39.9198 35.5815H38.042Z" fill="#231F20"/>
<path d="M46.3271 30.5769L48.318 30.564L50.0969 32.4305L51.8319 30.574H53.7889L51.3812 33.1187L53.6716 35.5773H51.7514L50.0969 33.7941L48.4056 35.5729H46.4896L48.7814 33.1144L46.3271 30.5769Z" fill="#231F20"/>
<mask id="mask6_7459_71567" style="mask-type:luminance" maskUnits="userSpaceOnUse" x="5" y="30" width="7" height="6">
<path d="M7.07757 30.7005C5.67453 30.7451 4.88469 31.8127 5.30858 32.7509C5.73246 33.6892 7.03095 33.6792 7.03095 33.6792C7.03095 33.6792 9.789 33.7093 9.83139 33.7093C10.3273 33.7093 10.4149 34.0183 10.3655 34.139C10.2539 34.366 9.82997 34.3933 9.82997 34.3933L6.17471 34.422L5.18848 35.7009H7.89142C7.89142 35.7009 9.93453 35.7583 10.3542 35.6362C11.9607 35.2368 12.0624 33.922 11.4803 33.1274C10.8967 32.3328 9.69857 32.3903 9.69857 32.3903C9.69857 32.3903 7.16235 32.4003 7.08181 32.3946C6.9928 32.4003 6.85998 32.3271 6.90661 32.1489C6.94758 31.9664 7.22876 31.9851 7.22876 31.9851L10.6876 31.9808L11.6611 30.6948C11.6611 30.6948 10.3937 30.679 9.10655 30.679C8.35487 30.679 7.59612 30.6847 7.07899 30.7005" fill="white"/>
</mask>
<g mask="url(#mask6_7459_71567)">
<mask id="mask7_7459_71567" style="mask-type:luminance" maskUnits="userSpaceOnUse" x="-2" y="13" width="25" height="26">
<path d="M14.7126 13.7907L-1.70898 21.9358L6.29788 38.6305L22.7195 30.4854L14.7126 13.7907Z" fill="white"/>
</mask>
<g mask="url(#mask7_7459_71567)">
<path d="M14.7126 13.7907L-1.70898 21.9358L6.29788 38.6305L22.7195 30.4854L14.7126 13.7907Z" fill="url(#paint3_linear_7459_71567)"/>
</g>
</g>
<mask id="mask8_7459_71567" style="mask-type:luminance" maskUnits="userSpaceOnUse" x="12" y="30" width="7" height="6">
<path d="M15.9121 30.6948L13.5864 32.4306V30.7006H12.0703H12.0576V35.7009H13.5991V34.0169L15.9248 35.6952H18.2194L14.762 33.2209L18.1869 30.6948H15.9121Z" fill="white"/>
</mask>
<g mask="url(#mask8_7459_71567)">
<mask id="mask9_7459_71567" style="mask-type:luminance" maskUnits="userSpaceOnUse" x="10" y="28" width="11" height="11">
<path d="M13.2018 38.2702L10.0156 31.6605L17.069 28.179L20.2552 34.7886L13.2018 38.2702Z" fill="white"/>
</mask>
<g mask="url(#mask9_7459_71567)">
<path d="M13.2018 38.2702L10.0156 31.6605L17.069 28.179L20.2552 34.7886L13.2018 38.2702Z" fill="url(#paint4_linear_7459_71567)"/>
</g>
</g>
<mask id="mask10_7459_71567" style="mask-type:luminance" maskUnits="userSpaceOnUse" x="18" y="30" width="8" height="6">
<path d="M23.8542 30.6975L22.1389 32.7264L20.2992 30.7018H18.3564L21.3505 34.0268L21.3519 35.7094L22.9033 35.7108V34.0569L25.8125 30.6975H23.8542Z" fill="white"/>
</mask>
<g mask="url(#mask10_7459_71567)">
<mask id="mask11_7459_71567" style="mask-type:luminance" maskUnits="userSpaceOnUse" x="16" y="27" width="13" height="13">
<path d="M23.4912 27.1275L16.0811 32.2104L20.6976 39.1708L28.1078 34.0879L23.4912 27.1275Z" fill="white"/>
</mask>
<g mask="url(#mask11_7459_71567)">
<path d="M23.4912 27.1275L16.0811 32.2104L20.6976 39.1708L28.1078 34.0879L23.4912 27.1275Z" fill="url(#paint5_linear_7459_71567)"/>
</g>
</g>
<mask id="mask12_7459_71567" style="mask-type:luminance" maskUnits="userSpaceOnUse" x="25" y="30" width="13" height="6">
<path d="M34.8217 30.6875H26.7326L25.7845 31.9793L25.7803 31.985H27.7697V35.7195H29.3564V32.0152H34.946C35.4052 32.0152 35.6708 32.3198 35.6638 32.5325C35.6864 32.7193 35.4674 33.113 34.9813 33.113C34.3554 33.1187 30.4331 33.1101 30.4331 33.1101L30.4444 35.7008H31.9703V34.4521H34.094L35.5776 35.7008H37.7295L36.0523 34.2007C36.0523 34.2007 36.4211 34.001 36.7489 33.6949C36.958 33.4995 37.1572 33.2164 37.1996 32.9305C37.5571 30.7823 35.213 30.6875 34.8598 30.6875C34.8428 30.6875 34.8301 30.6875 34.8231 30.6875" fill="white"/>
</mask>
<g mask="url(#mask12_7459_71567)">
<mask id="mask13_7459_71567" style="mask-type:luminance" maskUnits="userSpaceOnUse" x="23" y="25" width="17" height="16">
<path d="M35.4304 25.8173L23.832 31.5701L28.0817 40.4308L39.68 34.678L35.4304 25.8173Z" fill="white"/>
</mask>
<g mask="url(#mask13_7459_71567)">
<path d="M35.4304 25.8173L23.832 31.5701L28.0817 40.4308L39.68 34.678L35.4304 25.8173Z" fill="url(#paint6_linear_7459_71567)"/>
</g>
</g>
<mask id="mask14_7459_71567" style="mask-type:luminance" maskUnits="userSpaceOnUse" x="37" y="30" width="10" height="6">
<path d="M40.7897 31.6516L37.9482 35.7051H38.1008H39.826L42.0443 32.6144L43.3019 34.4076H41.2545L40.3502 35.7123H46.0952L43.1973 31.4261C43.1973 31.4261 42.7042 30.6875 42.05 30.6875C42.0359 30.6875 42.0217 30.6875 42.0076 30.6875C41.3789 30.6875 40.7897 31.6531 40.7897 31.6531" fill="white"/>
</mask>
<g mask="url(#mask14_7459_71567)">
<mask id="mask15_7459_71567" style="mask-type:luminance" maskUnits="userSpaceOnUse" x="36" y="27" width="13" height="12">
<path d="M44.582 27.3571L36.0557 31.5862L39.5701 38.9139L48.0965 34.6849L44.582 27.3571Z" fill="white"/>
</mask>
<g mask="url(#mask15_7459_71567)">
<path d="M44.582 27.3571L36.0557 31.5862L39.5701 38.9139L48.0965 34.6849L44.582 27.3571Z" fill="url(#paint7_linear_7459_71567)"/>
</g>
</g>
<mask id="mask16_7459_71567" style="mask-type:luminance" maskUnits="userSpaceOnUse" x="46" y="30" width="8" height="6">
<path d="M46.2344 30.7004L48.6886 33.238L46.3969 35.6965H48.3114L50.0041 33.9176L51.6586 35.7008H53.5774L51.2884 33.2423L53.6961 30.6976H51.7392L50.0041 32.554L48.2252 30.6875L46.2344 30.7004Z" fill="white"/>
</mask>
<g mask="url(#mask16_7459_71567)">
<mask id="mask17_7459_71567" style="mask-type:luminance" maskUnits="userSpaceOnUse" x="37" y="7" width="32" height="32">
<path d="M58.2951 7.55131L37.6992 17.7668L47.7445 38.7118L68.3404 28.4963L58.2951 7.55131Z" fill="white"/>
</mask>
<g mask="url(#mask17_7459_71567)">
<path d="M58.2951 7.55131L37.6992 17.7668L47.7445 38.7118L68.3404 28.4963L58.2951 7.55131Z" fill="url(#paint8_linear_7459_71567)"/>
</g>
</g>
<path fill-rule="evenodd" clip-rule="evenodd" d="M31.1257 11.6962L29.2239 10.2924L27.322 11.6962L28.0483 9.42305L26.1465 8.01778H28.4976L29.2239 5.74463L29.9501 8.01778H32.2998L30.398 9.42305L31.1257 11.6962Z" fill="white"/>
<path fill-rule="evenodd" clip-rule="evenodd" d="M24.2634 13.1576L22.3616 11.7524L20.4597 13.1576L21.186 10.8845L19.2842 9.47921H21.6353L22.3616 7.20605L23.0878 9.47921H25.4389L23.5371 10.8845L24.2634 13.1576Z" fill="white"/>
<path fill-rule="evenodd" clip-rule="evenodd" d="M37.9875 13.1576L36.0857 11.7524L34.1853 13.1576L34.9116 10.8845L33.0098 9.47921H35.3595L36.0857 7.20605L36.8134 9.47921H39.1631L37.2613 10.8845L37.9875 13.1576Z" fill="white"/>
<path fill-rule="evenodd" clip-rule="evenodd" d="M44.5192 16.7741L42.6174 15.3688L40.7156 16.7741L41.4419 14.5009L39.54 13.0957H41.8912L42.6174 10.8225L43.3437 13.0957H45.6948L43.793 14.5009L44.5192 16.7741Z" fill="white"/>
<path fill-rule="evenodd" clip-rule="evenodd" d="M17.8317 16.7741L15.9299 15.3688L14.0281 16.7741L14.7544 14.5009L12.8525 13.0957H15.2037L15.9299 10.8225L16.6562 13.0957H19.0059L17.1055 14.5009L17.8317 16.7741Z" fill="white"/>
<path fill-rule="evenodd" clip-rule="evenodd" d="M31.321 11.6244L29.4192 10.2206L27.5174 11.6244L28.2436 9.35128L26.3418 7.946H28.6915L29.4192 5.67285L30.1454 7.946H32.4951L30.5933 9.35128L31.321 11.6244Z" fill="black"/>
<path fill-rule="evenodd" clip-rule="evenodd" d="M24.4587 13.0859L22.5569 11.6806L20.6551 13.0859L21.3813 10.8127L19.4795 9.40743H21.8306L22.5569 7.13428L23.2831 9.40743H25.6342L23.7324 10.8127L24.4587 13.0859Z" fill="black"/>
<path fill-rule="evenodd" clip-rule="evenodd" d="M38.1829 13.0859L36.281 11.6806L34.3792 13.0859L35.1069 10.8127L33.2051 9.40743H35.5548L36.281 7.13428L37.0073 9.40743H39.3584L37.4566 10.8127L38.1829 13.0859Z" fill="black"/>
<path fill-rule="evenodd" clip-rule="evenodd" d="M44.7145 16.7023L42.8127 15.297L40.9109 16.7023L41.6372 14.4292L39.7354 13.0239H42.0865L42.8127 10.7507L43.539 13.0239H45.8901L43.9883 14.4292L44.7145 16.7023Z" fill="black"/>
<path fill-rule="evenodd" clip-rule="evenodd" d="M18.027 16.7023L16.1252 15.297L14.2234 16.7023L14.9497 14.4292L13.0479 13.0239H15.399L16.1252 10.7507L16.8515 13.0239H19.2012L17.2994 14.4292L18.027 16.7023Z" fill="black"/>
<path fill-rule="evenodd" clip-rule="evenodd" d="M12.1811 24.4371H11.2881V24.6196C11.2881 25.0348 11.3955 25.3553 11.6102 25.578C11.8292 25.8007 12.191 25.9113 12.6954 25.9113C13.1998 25.9113 13.5544 25.805 13.8229 25.5895C14.0956 25.3711 14.2312 25.0248 14.2312 24.5492C14.2312 24.4112 14.2185 24.2848 14.1945 24.1713C14.1691 24.0578 14.1238 23.9543 14.0574 23.8623C13.9953 23.7661 13.9105 23.677 13.8031 23.598C13.6957 23.5146 13.5573 23.4341 13.3877 23.358L12.6996 23.0562C12.5089 22.9758 12.3859 22.8896 12.328 22.7976C12.2701 22.7013 12.2418 22.5835 12.2418 22.4441C12.2418 22.3766 12.2475 22.3119 12.2602 22.2487C12.2771 22.1855 12.304 22.1309 12.3407 22.0849C12.3817 22.0346 12.4354 21.9944 12.5018 21.9657C12.5682 21.9369 12.6502 21.9211 12.7491 21.9211C12.9229 21.9211 13.0472 21.98 13.1207 22.0978C13.1956 22.2114 13.2323 22.3752 13.2323 22.5893H14.0871V22.4628C14.0871 22.2487 14.0518 22.0662 13.9811 21.9154C13.9147 21.7602 13.8201 21.6337 13.6957 21.5375C13.5756 21.4369 13.4315 21.365 13.262 21.3234C13.0966 21.2774 12.9144 21.2544 12.7166 21.2544C12.2913 21.2544 11.9564 21.3636 11.712 21.582C11.4689 21.8004 11.346 22.1323 11.346 22.5778C11.346 22.7631 11.3686 22.9269 11.4138 23.0692C11.4591 23.2071 11.5297 23.3321 11.6244 23.4413C11.7233 23.5462 11.8448 23.6382 11.9903 23.7187C12.1344 23.7991 12.3068 23.8724 12.5046 23.9385C12.653 23.9888 12.7773 24.0391 12.8762 24.0894C12.9794 24.1353 13.0627 24.1885 13.1235 24.2474C13.1857 24.3063 13.2295 24.3739 13.2535 24.4486C13.2817 24.5204 13.2973 24.6066 13.2973 24.7072C13.2973 24.8969 13.2422 25.0363 13.1306 25.1297C13.0232 25.2173 12.9017 25.2619 12.7646 25.2619C12.6487 25.2619 12.5513 25.2446 12.4735 25.2116C12.3987 25.1785 12.3393 25.1311 12.2941 25.0736C12.2489 25.0147 12.2178 24.9429 12.2008 24.8595C12.1839 24.7719 12.1754 24.6742 12.1754 24.5693V24.4371H12.1811Z" fill="#F8F9FA"/>
<path fill-rule="evenodd" clip-rule="evenodd" d="M17.8395 21.3435H15.0137V22.0864H15.9801V25.8424H16.8731V22.0864H17.8395V21.3435Z" fill="#F8F9FA"/>
<path fill-rule="evenodd" clip-rule="evenodd" d="M20.3011 24.1483L19.873 22.1252H19.8603L19.4322 24.1483H20.2997H20.3011ZM20.4184 21.3435L21.5897 25.8424H20.66L20.4551 24.8912H19.2781L19.0733 25.8424H18.1436L19.3149 21.3435H20.4184Z" fill="#F8F9FA"/>
<path fill-rule="evenodd" clip-rule="evenodd" d="M22.4717 21.3435V25.8424H23.3647V23.9385H23.8422C24.0287 23.9385 24.1601 23.9888 24.2393 24.0894C24.3184 24.1899 24.3608 24.3293 24.3693 24.5046L24.3947 25.3682C24.3989 25.4558 24.4074 25.5421 24.4201 25.6268C24.4328 25.7073 24.4611 25.7777 24.5063 25.8409H25.4728V25.8036C25.3908 25.7576 25.3357 25.6714 25.3117 25.5449C25.2947 25.4185 25.282 25.236 25.2749 24.9975C25.2707 24.8753 25.2665 24.7661 25.2622 24.6699C25.258 24.5693 25.2523 24.4759 25.2439 24.3925C25.2184 24.1411 25.1548 23.9572 25.0517 23.8451C24.9486 23.7316 24.7847 23.6583 24.5628 23.6238V23.6109C24.8143 23.5563 25.0008 23.4341 25.1209 23.2459C25.241 23.0519 25.3004 22.8048 25.3004 22.5016C25.3004 22.1108 25.1972 21.8205 24.9909 21.6323C24.7847 21.4397 24.495 21.342 24.1234 21.342H22.4745L22.4717 21.3435ZM23.3647 23.3091V22.0116H23.7857C24.1983 22.0116 24.406 22.22 24.406 22.6352C24.406 22.8795 24.3481 23.0534 24.2322 23.1583C24.1163 23.2588 23.951 23.3091 23.7363 23.3091H23.3647Z" fill="#F8F9FA"/>
<path fill-rule="evenodd" clip-rule="evenodd" d="M29.7845 24.1483L29.3564 22.1252H29.3437L28.9156 24.1483H29.7831H29.7845ZM29.9018 21.3435L31.0731 25.8424H30.1434L29.9385 24.8912H28.7615L28.5567 25.8424H27.627L28.7983 21.3435H29.9018Z" fill="#F8F9FA"/>
<path d="M32.8886 21.3435H31.9971V25.8424H32.8886V21.3435Z" fill="#F8F9FA"/>
<path fill-rule="evenodd" clip-rule="evenodd" d="M34.124 21.3435V25.8424H35.017V23.9385H35.4946C35.6811 23.9385 35.8125 23.9888 35.8916 24.0894C35.9693 24.1899 36.0131 24.3293 36.0216 24.5046L36.047 25.3682C36.0513 25.4558 36.0597 25.5421 36.0711 25.6268C36.0838 25.7073 36.112 25.7777 36.1572 25.8409H37.1237V25.8036C37.0403 25.7576 36.988 25.6714 36.9626 25.5449C36.9457 25.4185 36.9344 25.236 36.9259 24.9975C36.9216 24.8753 36.9174 24.7661 36.9132 24.6699C36.9089 24.5693 36.9033 24.4759 36.8948 24.3925C36.8708 24.1411 36.8058 23.9572 36.7026 23.8451C36.5995 23.7316 36.4356 23.6583 36.2138 23.6238V23.6109C36.4653 23.5563 36.6518 23.4341 36.7719 23.2459C36.892 23.0519 36.9513 22.8048 36.9513 22.5016C36.9513 22.1108 36.8482 21.8205 36.6419 21.6323C36.4356 21.4397 36.1459 21.342 35.7743 21.342H34.1254L34.124 21.3435ZM35.017 23.3091V22.0116H35.4381C35.8506 22.0116 36.0583 22.22 36.0583 22.6352C36.0583 22.8795 36.0004 23.0534 35.8845 23.1583C35.7687 23.2588 35.6034 23.3091 35.3886 23.3091H35.017Z" fill="#F8F9FA"/>
<path fill-rule="evenodd" clip-rule="evenodd" d="M39.0336 23.3795V22.0116H39.4052C39.6284 22.0116 39.7867 22.0705 39.8828 22.1884C39.9774 22.3062 40.0255 22.4786 40.0255 22.7056C40.0255 22.9327 39.9704 23.1065 39.8588 23.2157C39.7514 23.3249 39.6087 23.3795 39.4306 23.3795H39.0336ZM38.1406 21.3435V25.8424H39.0336V24.0463H39.5112C39.7217 24.0463 39.9139 24.019 40.0877 23.9644C40.2614 23.9098 40.4084 23.8279 40.5285 23.7186C40.6528 23.6094 40.7475 23.4686 40.8139 23.2962C40.8845 23.1238 40.9199 22.9226 40.9199 22.6913C40.9199 22.5232 40.8987 22.3594 40.8577 22.1999C40.8167 22.0361 40.7489 21.8909 40.6528 21.7645C40.5582 21.638 40.4324 21.5375 40.2756 21.4613C40.123 21.3808 39.9322 21.342 39.7047 21.342H38.1434L38.1406 21.3435Z" fill="#F8F9FA"/>
<path fill-rule="evenodd" clip-rule="evenodd" d="M42.7285 23.5937C42.7285 23.2919 42.7341 23.0347 42.7468 22.8249C42.7638 22.6152 42.7921 22.4427 42.833 22.3077C42.8782 22.1726 42.9404 22.0763 43.0195 22.0174C43.1015 21.9542 43.2089 21.9226 43.3417 21.9226C43.4745 21.9226 43.5791 21.9542 43.6582 22.0174C43.7401 22.0763 43.8023 22.1726 43.8447 22.3077C43.8899 22.4427 43.9196 22.6137 43.9309 22.8249C43.9478 23.0347 43.9563 23.2919 43.9563 23.5937C43.9563 23.8954 43.9478 24.1541 43.9309 24.3696C43.9182 24.5794 43.8899 24.7518 43.8447 24.8869C43.8037 25.0176 43.7416 25.1139 43.6582 25.1771C43.5791 25.236 43.4745 25.2648 43.3417 25.2648C43.2089 25.2648 43.1015 25.236 43.0195 25.1771C42.9404 25.1139 42.8797 25.0176 42.833 24.8869C42.7921 24.7518 42.7624 24.5808 42.7468 24.3696C42.7341 24.1555 42.7285 23.8969 42.7285 23.5937ZM41.8369 23.5937C41.8369 23.9385 41.851 24.2532 41.8807 24.5391C41.9132 24.8251 41.9824 25.0708 42.0856 25.2763C42.193 25.4817 42.3456 25.6398 42.5448 25.749C42.7426 25.8582 43.0096 25.9128 43.3445 25.9128C43.6794 25.9128 43.945 25.8582 44.1442 25.749C44.3421 25.6398 44.4932 25.4817 44.5964 25.2763C44.7038 25.0708 44.7716 24.8251 44.8013 24.5391C44.8338 24.2532 44.8507 23.9385 44.8507 23.5937C44.8507 23.2488 44.8338 22.9399 44.8013 22.6554C44.7716 22.3651 44.7038 22.118 44.5964 21.9111C44.4932 21.7056 44.3421 21.5461 44.1442 21.4326C43.9464 21.3148 43.6794 21.2559 43.3445 21.2559C43.0096 21.2559 42.744 21.3148 42.5448 21.4326C42.347 21.5461 42.193 21.7056 42.0856 21.9111C41.9824 22.1166 41.9146 22.3651 41.8807 22.6554C41.851 22.9413 41.8369 23.2546 41.8369 23.5937Z" fill="#F8F9FA"/>
<path fill-rule="evenodd" clip-rule="evenodd" d="M45.9463 21.3435V25.8424H46.8393V23.9385H47.3168C47.5033 23.9385 47.6347 23.9888 47.7139 24.0894C47.7916 24.1899 47.8354 24.3293 47.8439 24.5046L47.8679 25.3682C47.8721 25.4558 47.8806 25.5421 47.8933 25.6268C47.906 25.7073 47.9343 25.7777 47.9795 25.8409H48.946V25.8036C48.864 25.7576 48.8103 25.6714 48.7849 25.5449C48.7679 25.4185 48.7552 25.236 48.7481 24.9975C48.7439 24.8753 48.7397 24.7661 48.7354 24.6699C48.7312 24.5693 48.7255 24.4759 48.7171 24.3925C48.6916 24.1411 48.628 23.9572 48.5249 23.8451C48.4218 23.7316 48.2579 23.6583 48.036 23.6238V23.6109C48.2875 23.5563 48.474 23.4341 48.5941 23.2459C48.7142 23.0519 48.7736 22.8048 48.7736 22.5016C48.7736 22.1108 48.6704 21.8205 48.4641 21.6323C48.2579 21.4397 47.9682 21.342 47.5966 21.342H45.9477L45.9463 21.3435ZM46.8393 23.3091V22.0116H47.2603C47.6729 22.0116 47.8792 22.22 47.8792 22.6352C47.8792 22.8795 47.8213 23.0534 47.7054 23.1583C47.5895 23.2588 47.4242 23.3091 47.2095 23.3091H46.8379H46.8393Z" fill="#F8F9FA"/>
<path fill-rule="evenodd" clip-rule="evenodd" d="M52.5524 21.3435H49.7266V22.0864H50.693V25.8424H51.586V22.0864H52.5524V21.3435Z" fill="#F8F9FA"/>
<path fill-rule="evenodd" clip-rule="evenodd" d="M8.76484 22.0951V21.3853H6.46599L6.30351 23.8236H7.10747C7.12442 23.6972 7.1654 23.5981 7.2318 23.5262C7.30245 23.4501 7.40277 23.4127 7.53135 23.4127C7.63167 23.4127 7.71362 23.4271 7.78144 23.4572C7.84785 23.4874 7.90012 23.5377 7.93686 23.6096C7.97784 23.6814 8.00751 23.7777 8.02446 23.9012C8.04142 24.0234 8.0499 24.1786 8.0499 24.3639C8.0499 24.6556 8.00892 24.8754 7.92556 25.0234C7.84643 25.1671 7.71362 25.239 7.52711 25.239C7.43103 25.239 7.35473 25.216 7.2968 25.17C7.23887 25.1197 7.19366 25.0579 7.15974 24.9861C7.13007 24.9099 7.11171 24.8295 7.10323 24.7447C7.09475 24.6599 7.09051 24.5794 7.09051 24.5033H6.23145V24.624C6.23145 24.7504 6.24557 24.8884 6.27525 25.0364C6.30774 25.1801 6.37133 25.3151 6.46175 25.4416C6.5536 25.5637 6.68359 25.6629 6.85455 25.739C7.02834 25.8152 7.25582 25.8525 7.53276 25.8525C7.8097 25.8525 8.04848 25.8166 8.23075 25.7448C8.41302 25.6686 8.55714 25.5594 8.66028 25.4157C8.76908 25.2677 8.84255 25.0924 8.88494 24.8898C8.92592 24.6872 8.94711 24.4616 8.94711 24.2116C8.94711 24.0349 8.93016 23.861 8.89766 23.6915C8.86516 23.5176 8.80582 23.3638 8.72387 23.2288C8.64474 23.0937 8.53453 22.9859 8.39324 22.9055C8.25618 22.8207 8.08239 22.779 7.87045 22.779C7.67971 22.779 7.51722 22.8063 7.3844 22.8609C7.25159 22.9112 7.14279 22.996 7.06084 23.1138H7.04812L7.14138 22.0936H8.76767L8.76484 22.0951Z" fill="white"/>
<path fill-rule="evenodd" clip-rule="evenodd" d="M9.00229 21.9454V21.2112H6.62432L6.45618 23.7344H7.28699C7.30394 23.6036 7.34774 23.5001 7.41557 23.4269C7.48904 23.3478 7.59218 23.309 7.725 23.309C7.82814 23.309 7.91433 23.3248 7.98357 23.355C8.0528 23.3852 8.10508 23.4384 8.14464 23.5131C8.18703 23.5878 8.21811 23.6869 8.23507 23.8148C8.25202 23.9413 8.2605 24.1008 8.2605 24.2933C8.2605 24.595 8.21811 24.8221 8.13192 24.9744C8.04997 25.1224 7.91292 25.1971 7.71935 25.1971C7.62044 25.1971 7.54132 25.1727 7.48056 25.1253C7.4198 25.0721 7.37318 25.0089 7.33927 24.9356C7.30959 24.8566 7.28981 24.7747 7.28134 24.687C7.27286 24.5994 7.26862 24.5175 7.26862 24.4384H6.37988V24.5634C6.37988 24.6942 6.39543 24.8364 6.4251 24.9902C6.45901 25.1382 6.524 25.279 6.61867 25.4098C6.71334 25.5362 6.84898 25.6397 7.02418 25.7173C7.20504 25.7963 7.43817 25.8351 7.72641 25.8351C8.01465 25.8351 8.25909 25.7977 8.44842 25.7244C8.63776 25.6454 8.78611 25.5319 8.8935 25.3839C9.00512 25.2316 9.08283 25.0491 9.12522 24.8393C9.16761 24.6295 9.19021 24.3953 9.19021 24.1381C9.19021 23.9542 9.17326 23.776 9.13794 23.6007C9.10402 23.4211 9.04327 23.2616 8.95708 23.1222C8.87513 22.9829 8.76209 22.8708 8.61515 22.7874C8.47386 22.6998 8.293 22.6567 8.07399 22.6567C7.87618 22.6567 7.70946 22.6854 7.57099 22.7415C7.43393 22.7946 7.32231 22.8808 7.23612 23.003H7.22341L7.31949 21.9483H9.00088L9.00229 21.9454Z" fill="black"/>
<path fill-rule="evenodd" clip-rule="evenodd" d="M17.9753 21.2529H15.1494V21.9972H16.1159V25.7533H17.0088V21.9972H17.9753V21.2529Z" fill="#060606"/>
<path fill-rule="evenodd" clip-rule="evenodd" d="M20.4369 24.0577L20.0087 22.0346H19.996L19.5679 24.0577H20.4354H20.4369ZM20.5541 21.2529L21.7255 25.7518H20.7957L20.5909 24.8006H19.4139L19.209 25.7518H18.2793L19.4506 21.2529H20.5541Z" fill="#060606"/>
<path fill-rule="evenodd" clip-rule="evenodd" d="M22.6074 21.2529V25.7518H23.5004V23.8479H23.978C24.1645 23.8479 24.2959 23.8982 24.375 23.9988C24.4541 24.0994 24.4965 24.2387 24.505 24.414L24.5304 25.2776C24.5347 25.3653 24.5431 25.4515 24.5559 25.5363C24.5686 25.6167 24.5968 25.6871 24.6421 25.7504H25.6085V25.713C25.5266 25.667 25.4714 25.5808 25.4474 25.4544C25.4305 25.3279 25.4178 25.1454 25.4107 24.9069C25.4065 24.7848 25.4022 24.6756 25.398 24.5793C25.3937 24.4787 25.3881 24.3853 25.3796 24.302C25.3542 24.0505 25.2906 23.8666 25.1874 23.7545C25.0843 23.641 24.9204 23.5677 24.6986 23.5332V23.5203C24.9501 23.4657 25.1366 23.3436 25.2567 23.1553C25.3768 22.9614 25.4361 22.7142 25.4361 22.411C25.4361 22.0202 25.333 21.7299 25.1267 21.5417C24.9204 21.3492 24.6307 21.2515 24.2591 21.2515H22.6102L22.6074 21.2529ZM23.5004 23.2186V21.9211H23.9215C24.334 21.9211 24.5417 22.1294 24.5417 22.5447C24.5417 22.7889 24.4838 22.9628 24.3679 23.0677C24.2521 23.1683 24.0868 23.2186 23.872 23.2186H23.5004Z" fill="#060606"/>
<path fill-rule="evenodd" clip-rule="evenodd" d="M29.9202 24.0577L29.4921 22.0346H29.4794L29.0513 24.0577H29.9188H29.9202ZM30.0375 21.2529L31.2088 25.7518H30.2791L30.0743 24.8006H28.8973L28.6924 25.7518H27.7627L28.934 21.2529H30.0375Z" fill="#060606"/>
<path d="M33.0244 21.2529H32.1328V25.7518H33.0244V21.2529Z" fill="#060606"/>
<path fill-rule="evenodd" clip-rule="evenodd" d="M34.2598 21.2529V25.7518H35.1527V23.8479H35.6303C35.8168 23.8479 35.9482 23.8982 36.0273 23.9988C36.1051 24.0994 36.1489 24.2387 36.1573 24.414L36.1828 25.2776C36.187 25.3653 36.1955 25.4515 36.2068 25.5363C36.2195 25.6167 36.2478 25.6871 36.2944 25.7504H37.2608V25.713C37.1775 25.667 37.1252 25.5808 37.0998 25.4544C37.0828 25.3279 37.0701 25.1454 37.063 24.9069C37.0588 24.7848 37.0546 24.6756 37.0503 24.5793C37.0461 24.4787 37.0404 24.3853 37.0319 24.302C37.0079 24.0505 36.9429 23.8666 36.8398 23.7545C36.7366 23.641 36.5727 23.5677 36.3509 23.5332V23.5203C36.6024 23.4657 36.7889 23.3436 36.909 23.1553C37.0291 22.9614 37.0885 22.7142 37.0885 22.411C37.0885 22.0202 36.9853 21.7299 36.779 21.5417C36.5727 21.3492 36.2831 21.2515 35.9115 21.2515H34.2626L34.2598 21.2529ZM35.1527 23.2186V21.9211H35.5738C35.9864 21.9211 36.1927 22.1294 36.1927 22.5447C36.1927 22.7889 36.1347 22.9628 36.0189 23.0677C35.903 23.1683 35.7377 23.2186 35.5229 23.2186H35.1513H35.1527Z" fill="#060606"/>
<path fill-rule="evenodd" clip-rule="evenodd" d="M39.1693 23.289V21.9211H39.5409C39.7642 21.9211 39.9224 21.98 40.0185 22.0978C40.1132 22.2156 40.1612 22.388 40.1612 22.6151C40.1612 22.8421 40.1061 23.016 39.9945 23.1252C39.8871 23.2344 39.7444 23.289 39.5664 23.289H39.1693ZM38.2764 21.2529V25.7518H39.1693V23.9557H39.6469C39.8574 23.9557 40.0496 23.9284 40.2234 23.8738C40.3972 23.8192 40.5441 23.7373 40.6628 23.6281C40.7872 23.5189 40.8818 23.3781 40.9482 23.2056C41.0189 23.0332 41.0542 22.832 41.0542 22.6007C41.0542 22.4326 41.033 22.2688 40.992 22.1093C40.9511 21.9455 40.8818 21.8004 40.7872 21.6739C40.6925 21.5475 40.5667 21.4469 40.4099 21.3707C40.2573 21.2903 40.0666 21.2515 39.8391 21.2515H38.2778L38.2764 21.2529Z" fill="#060606"/>
<path fill-rule="evenodd" clip-rule="evenodd" d="M42.8647 23.5031C42.8647 23.2013 42.8703 22.9441 42.883 22.7344C42.9 22.5246 42.9282 22.3521 42.9706 22.2171C43.0158 22.082 43.078 21.9857 43.1571 21.9268C43.2391 21.8636 43.3465 21.832 43.4793 21.832C43.6121 21.832 43.7167 21.8636 43.7958 21.9268C43.8777 21.9857 43.9399 22.082 43.9823 22.2171C44.0275 22.3521 44.0572 22.5231 44.0685 22.7344C44.0854 22.9441 44.0939 23.2013 44.0939 23.5031C44.0939 23.8048 44.0854 24.0635 44.0685 24.279C44.0558 24.4888 44.0275 24.6612 43.9823 24.7963C43.9413 24.927 43.8791 25.0233 43.7958 25.0865C43.7167 25.1455 43.6121 25.1742 43.4793 25.1742C43.3465 25.1742 43.2391 25.1455 43.1571 25.0865C43.078 25.0233 43.0158 24.927 42.9706 24.7963C42.9297 24.6612 42.9 24.4902 42.883 24.279C42.8703 24.0649 42.8647 23.8063 42.8647 23.5031ZM41.9717 23.5031C41.9717 23.8479 41.9858 24.1626 42.0155 24.4486C42.048 24.7345 42.1158 24.9802 42.2204 25.1857C42.3277 25.3912 42.4803 25.5492 42.6796 25.6584C42.8774 25.7676 43.1444 25.8222 43.4793 25.8222C43.8142 25.8222 44.0798 25.7676 44.279 25.6584C44.4768 25.5492 44.628 25.3912 44.7311 25.1857C44.8385 24.9802 44.9064 24.7345 44.936 24.4486C44.9685 24.1626 44.9855 23.8479 44.9855 23.5031C44.9855 23.1582 44.9685 22.8493 44.936 22.5648C44.9064 22.2746 44.8385 22.0274 44.7311 21.8205C44.628 21.615 44.4768 21.4555 44.279 21.342C44.0812 21.2242 43.8142 21.1653 43.4793 21.1653C43.1444 21.1653 42.8788 21.2242 42.6796 21.342C42.4818 21.4555 42.3277 21.615 42.2204 21.8205C42.1172 22.026 42.0494 22.2746 42.0155 22.5648C41.9858 22.8507 41.9717 23.164 41.9717 23.5031Z" fill="#060606"/>
<path fill-rule="evenodd" clip-rule="evenodd" d="M46.0801 21.2529V25.7518H46.9731V23.8479H47.4506C47.6357 23.8479 47.7685 23.8982 47.8477 23.9988C47.9268 24.0994 47.9692 24.2387 47.9777 24.414L48.0031 25.2776C48.0073 25.3653 48.0158 25.4515 48.0285 25.5363C48.0412 25.6167 48.0695 25.6871 48.1147 25.7504H49.0812V25.713C48.9992 25.667 48.9455 25.5808 48.9201 25.4544C48.9031 25.3279 48.8904 25.1454 48.8833 24.9069C48.8791 24.7848 48.8749 24.6756 48.8706 24.5793C48.8664 24.4787 48.8607 24.3853 48.8523 24.302C48.8282 24.0505 48.7632 23.8666 48.6601 23.7545C48.557 23.641 48.3945 23.5677 48.1712 23.5332V23.5203C48.4227 23.4657 48.6092 23.3436 48.7293 23.1553C48.8494 22.9614 48.9088 22.7142 48.9088 22.411C48.9088 22.0202 48.8056 21.7299 48.5993 21.5417C48.3931 21.3492 48.1034 21.2515 47.7318 21.2515H46.0829L46.0801 21.2529ZM46.9731 23.2186V21.9211H47.3941C47.8067 21.9211 48.0144 22.1294 48.0144 22.5447C48.0144 22.7889 47.9565 22.9628 47.8406 23.0677C47.7247 23.1683 47.5594 23.2186 47.3447 23.2186H46.9731Z" fill="#060606"/>
<path fill-rule="evenodd" clip-rule="evenodd" d="M52.6882 21.2529H49.8623V21.9972H50.8288V25.7533H51.7217V21.9972H52.6882V21.2529Z" fill="#060606"/>
<path fill-rule="evenodd" clip-rule="evenodd" d="M12.3168 24.3465H11.4238V24.529C11.4238 24.9443 11.5312 25.2647 11.746 25.4874C11.965 25.7101 12.3267 25.8208 12.8311 25.8208C13.3355 25.8208 13.6902 25.7144 13.9586 25.4989C14.2313 25.2805 14.367 24.9342 14.367 24.4586C14.367 24.3207 14.3543 24.1942 14.3302 24.0807C14.3048 23.9672 14.2596 23.8637 14.1932 23.7718C14.131 23.6755 14.0462 23.5864 13.9389 23.5074C13.8315 23.424 13.693 23.3436 13.5235 23.2674L12.8354 22.9657C12.6446 22.8852 12.5217 22.799 12.4637 22.707C12.4058 22.6108 12.3776 22.4929 12.3776 22.3536C12.3776 22.286 12.3832 22.2214 12.3959 22.1581C12.4129 22.0949 12.4397 22.0403 12.4765 21.9943C12.5174 21.944 12.5711 21.9038 12.6375 21.8751C12.7039 21.8463 12.7859 21.8305 12.8848 21.8305C13.0586 21.8305 13.1829 21.8894 13.2564 22.0073C13.3313 22.1208 13.368 22.2846 13.368 22.4987H14.2229V22.3722C14.2229 22.1581 14.1875 21.9757 14.1169 21.8248C14.0505 21.6696 13.9558 21.5432 13.8315 21.4469C13.7114 21.3463 13.5673 21.2745 13.3977 21.2328C13.2324 21.1868 13.0501 21.1638 12.8523 21.1638C12.427 21.1638 12.0921 21.273 11.8477 21.4914C11.6047 21.7098 11.4818 22.0418 11.4818 22.4872C11.4818 22.6725 11.5044 22.8364 11.5496 22.9786C11.5948 23.1165 11.6654 23.2416 11.7601 23.3508C11.859 23.4556 11.9805 23.5476 12.1261 23.6281C12.2702 23.7085 12.4426 23.7818 12.6404 23.8479C12.7887 23.8982 12.9131 23.9485 13.012 23.9988C13.1151 24.0448 13.1985 24.0979 13.2592 24.1568C13.3214 24.2158 13.3652 24.2833 13.3892 24.358C13.4175 24.4299 13.433 24.5161 13.433 24.6167C13.433 24.8063 13.3779 24.9457 13.2663 25.0391C13.1589 25.1267 13.0374 25.1713 12.9003 25.1713C12.7845 25.1713 12.687 25.154 12.6093 25.121C12.5344 25.088 12.4751 25.0405 12.4298 24.9831C12.3846 24.9241 12.3535 24.8523 12.3366 24.769C12.3196 24.6813 12.3112 24.5836 12.3112 24.4787V24.3465H12.3168Z" fill="#060606"/>
</g>
<defs>
<linearGradient id="paint0_linear_7459_71567" x1="10.0846" y1="42.8791" x2="77.4653" y2="-3.37731" gradientUnits="userSpaceOnUse">
<stop stop-color="#C9972C"/>
<stop offset="0.04" stop-color="#C9972C"/>
<stop offset="0.06" stop-color="#CB9C2E"/>
<stop offset="0.09" stop-color="#D4AC33"/>
<stop offset="0.12" stop-color="#E5CC40"/>
<stop offset="0.13" stop-color="#E1C43D"/>
<stop offset="0.15" stop-color="#D3AB33"/>
<stop offset="0.18" stop-color="#CB9C2D"/>
<stop offset="0.2" stop-color="#C9972C"/>
<stop offset="0.22" stop-color="#CFA22D"/>
<stop offset="0.26" stop-color="#E0C031"/>
<stop offset="0.27" stop-color="#E6CA33"/>
<stop offset="0.31" stop-color="#D8B22F"/>
<stop offset="0.35" stop-color="#CD9E2D"/>
<stop offset="0.37" stop-color="#C9972C"/>
<stop offset="0.38" stop-color="#CFA22E"/>
<stop offset="0.4" stop-color="#DBB731"/>
<stop offset="0.43" stop-color="#E2C434"/>
<stop offset="0.45" stop-color="#E5C935"/>
<stop offset="0.46" stop-color="#DBB832"/>
<stop offset="0.49" stop-color="#CEA02D"/>
<stop offset="0.51" stop-color="#C9972C"/>
<stop offset="1" stop-color="#C9972C"/>
</linearGradient>
<linearGradient id="paint1_linear_7459_71567" x1="15.32" y1="13.4352" x2="50.5634" y2="52.2914" gradientUnits="userSpaceOnUse">
<stop stop-color="#C9972C"/>
<stop offset="0.11" stop-color="#CC9E2E"/>
<stop offset="0.27" stop-color="#D7B236"/>
<stop offset="0.42" stop-color="#E5CC40"/>
<stop offset="0.65" stop-color="#D6AF35"/>
<stop offset="0.85" stop-color="#CC9D2E"/>
<stop offset="1" stop-color="#C9972C"/>
</linearGradient>
<linearGradient id="paint2_linear_7459_71567" x1="25.3439" y1="36.7578" x2="35.3992" y2="49.4135" gradientUnits="userSpaceOnUse">
<stop stop-color="#E1E2E3"/>
<stop offset="0.16" stop-color="#EFEFF0"/>
<stop offset="0.37" stop-color="white"/>
<stop offset="0.51" stop-color="#D9DBDC"/>
<stop offset="0.59" stop-color="#F1F2F2"/>
<stop offset="0.64" stop-color="white"/>
<stop offset="0.67" stop-color="#FAFBFB"/>
<stop offset="0.71" stop-color="#EEEFEF"/>
<stop offset="0.74" stop-color="#D9DBDC"/>
<stop offset="0.75" stop-color="#DEE0E0"/>
<stop offset="0.79" stop-color="#EAEBEB"/>
<stop offset="0.85" stop-color="#F1F1F1"/>
<stop offset="1" stop-color="#F3F3F3"/>
</linearGradient>
<linearGradient id="paint3_linear_7459_71567" x1="9.71335" y1="36.0386" x2="6.97117" y2="30.51" gradientUnits="userSpaceOnUse">
<stop stop-color="#C5C6C8"/>
<stop offset="0.02" stop-color="#D5D6D7"/>
<stop offset="0.05" stop-color="#E8E8E9"/>
<stop offset="0.09" stop-color="#F5F5F5"/>
<stop offset="0.14" stop-color="#FCFCFC"/>
<stop offset="0.25" stop-color="white"/>
<stop offset="0.41" stop-color="#DCDBDB"/>
<stop offset="0.49" stop-color="#CFCECE"/>
<stop offset="0.6" stop-color="#EEEEEE"/>
<stop offset="0.67" stop-color="white"/>
<stop offset="0.75" stop-color="#FBFBFB"/>
<stop offset="0.8" stop-color="#F1F1F2"/>
<stop offset="0.86" stop-color="#E0E1E1"/>
<stop offset="0.91" stop-color="#C9C9CB"/>
<stop offset="0.95" stop-color="#B0B1B3"/>
<stop offset="1" stop-color="#B0B1B3"/>
</linearGradient>
<linearGradient id="paint4_linear_7459_71567" x1="24.0659" y1="51.8697" x2="20.7994" y2="45.316" gradientUnits="userSpaceOnUse">
<stop stop-color="#C5C6C8"/>
<stop offset="0.09" stop-color="#D1D2D3"/>
<stop offset="0.24" stop-color="#F1F1F2"/>
<stop offset="0.3" stop-color="white"/>
<stop offset="0.39" stop-color="#DCDBDB"/>
<stop offset="0.44" stop-color="#CFCECE"/>
<stop offset="0.53" stop-color="#EEEEEE"/>
<stop offset="0.58" stop-color="white"/>
<stop offset="0.68" stop-color="#FBFBFB"/>
<stop offset="0.75" stop-color="#F1F1F2"/>
<stop offset="0.83" stop-color="#E0E1E1"/>
<stop offset="0.89" stop-color="#C9C9CB"/>
<stop offset="0.95" stop-color="#B0B1B3"/>
<stop offset="1" stop-color="#B0B1B3"/>
</linearGradient>
<linearGradient id="paint5_linear_7459_71567" x1="24.5183" y1="34.5035" x2="20.7274" y2="28.9769" gradientUnits="userSpaceOnUse">
<stop stop-color="#C5C6C8"/>
<stop offset="0.08" stop-color="#D1D2D3"/>
<stop offset="0.22" stop-color="#F1F1F2"/>
<stop offset="0.27" stop-color="white"/>
<stop offset="0.29" stop-color="#F3F3F3"/>
<stop offset="0.34" stop-color="#DFDEDE"/>
<stop offset="0.4" stop-color="#D3D2D2"/>
<stop offset="0.45" stop-color="#CFCECE"/>
<stop offset="0.49" stop-color="#D5D4D4"/>
<stop offset="0.55" stop-color="#E7E6E6"/>
<stop offset="0.61" stop-color="white"/>
<stop offset="0.7" stop-color="#FBFBFB"/>
<stop offset="0.77" stop-color="#F1F1F2"/>
<stop offset="0.84" stop-color="#E0E1E1"/>
<stop offset="0.9" stop-color="#C9C9CB"/>
<stop offset="0.95" stop-color="#B0B1B3"/>
<stop offset="1" stop-color="#B0B1B3"/>
</linearGradient>
<linearGradient id="paint6_linear_7459_71567" x1="34.1911" y1="37.3036" x2="30.0247" y2="28.9036" gradientUnits="userSpaceOnUse">
<stop stop-color="#C5C6C8"/>
<stop offset="0.08" stop-color="#D1D2D3"/>
<stop offset="0.22" stop-color="#F1F1F2"/>
<stop offset="0.27" stop-color="white"/>
<stop offset="0.44" stop-color="#E0E0DF"/>
<stop offset="0.54" stop-color="#CFCECE"/>
<stop offset="0.58" stop-color="#D5D4D4"/>
<stop offset="0.64" stop-color="#E6E5E5"/>
<stop offset="0.69" stop-color="white"/>
<stop offset="0.79" stop-color="#DCDCDD"/>
<stop offset="0.91" stop-color="#BCBDBE"/>
<stop offset="0.97" stop-color="#B0B1B3"/>
<stop offset="1" stop-color="#B0B1B3"/>
</linearGradient>
<linearGradient id="paint7_linear_7459_71567" x1="43.0068" y1="37.1397" x2="40.166" y2="31.4122" gradientUnits="userSpaceOnUse">
<stop stop-color="#C5C6C8"/>
<stop offset="0.07" stop-color="#D6D7D8"/>
<stop offset="0.19" stop-color="#F4F4F4"/>
<stop offset="0.27" stop-color="white"/>
<stop offset="0.43" stop-color="#DCDBDB"/>
<stop offset="0.51" stop-color="#CFCECE"/>
<stop offset="0.65" stop-color="#D0D0D0"/>
<stop offset="0.7" stop-color="#D7D7D7"/>
<stop offset="0.74" stop-color="#E4E3E3"/>
<stop offset="0.77" stop-color="#F5F5F5"/>
<stop offset="0.79" stop-color="white"/>
<stop offset="0.83" stop-color="#F7F7F7"/>
<stop offset="0.89" stop-color="#E1E1E2"/>
<stop offset="0.97" stop-color="#BDBEC0"/>
<stop offset="1" stop-color="#B0B1B3"/>
</linearGradient>
<linearGradient id="paint8_linear_7459_71567" x1="51.609" y1="36.7091" x2="48.1687" y2="29.773" gradientUnits="userSpaceOnUse">
<stop stop-color="#C5C6C8"/>
<stop offset="0.09" stop-color="#D1D2D3"/>
<stop offset="0.24" stop-color="#F1F1F2"/>
<stop offset="0.3" stop-color="white"/>
<stop offset="0.39" stop-color="#DCDBDB"/>
<stop offset="0.44" stop-color="#CFCECE"/>
<stop offset="0.53" stop-color="#EEEEEE"/>
<stop offset="0.58" stop-color="white"/>
<stop offset="0.68" stop-color="#FBFBFB"/>
<stop offset="0.75" stop-color="#F1F1F2"/>
<stop offset="0.83" stop-color="#E0E1E1"/>
<stop offset="0.89" stop-color="#C9C9CB"/>
<stop offset="0.95" stop-color="#B0B1B3"/>
<stop offset="1" stop-color="#B0B1B3"/>
</linearGradient>
<clipPath id="clip0_7459_71567">
<rect width="59" height="60" fill="white"/>
</clipPath>
</defs>
</svg>
