<svg width="59" height="60" viewBox="0 0 59 60" fill="none" xmlns="http://www.w3.org/2000/svg">
<g clip-path="url(#clip0_7459_71565)">
<ellipse cx="29.5" cy="29.2593" rx="29.5" ry="29.2593" fill="white"/>
<path d="M27.8087 25.7074C31.8208 23.0845 35.8492 21.2959 39.4446 20.3817V12.9053H19.3467V32.791C21.6728 30.2849 24.5385 27.8462 27.8081 25.7067" fill="#5392C8"/>
<path d="M28.1573 26.3142C24.7849 28.5199 21.7983 30.6425 19.3467 33.1449V40.5963H39.4446V20.7949C35.9431 21.9059 32.0577 23.7631 28.1573 26.3142Z" fill="#184891"/>
<path d="M30.1384 24.2771L30.0753 18.6329C30.0753 18.5786 30.1535 16.1268 30.6791 15.6903C30.9148 15.4998 31.0988 15.5267 31.2564 15.5816C32.0965 16.0182 32.2276 17.6525 32.5433 19.042C32.7267 19.9418 32.8584 21.3588 32.8584 21.3588H33.1206V15.5542H32.8584V16.5896C32.8584 16.9168 32.7796 17.0798 32.6486 17.0261C32.4652 16.9443 32.3599 16.6171 32.15 16.1537C31.9925 15.8277 31.8349 15.6091 31.5469 15.3912C31.3099 15.2282 30.8896 15.2557 30.6022 15.3643C29.3682 15.7996 28.7651 19.506 28.4758 22.5847C28.3939 23.5414 28.3769 24.3501 28.3844 25.3437C28.9705 24.9721 29.5554 24.6137 30.1396 24.2771" fill="white"/>
<path d="M33.0935 28.8778L33.0677 29.7221C33.0418 30.4309 32.779 34.9541 31.7297 35.7441C31.3881 35.9895 31.1518 35.9352 31.0201 35.854C30.2335 35.4175 30.2335 33.2649 30.2335 32.8021L30.1472 25.0828C29.5642 25.4287 28.9794 25.7916 28.3945 26.1694L28.3958 26.2356C28.4223 27.7887 28.5533 28.9602 28.6844 30.2136C28.8943 32.6385 29.3934 35.3631 30.7837 36.0994C31.1776 36.3167 31.5715 36.2349 31.8078 36.0719C33.2246 35.1183 33.3563 29.4779 33.3292 28.8778" fill="white"/>
<path d="M22.3601 29.8547C22.856 25.9479 23.5405 20.5953 23.5405 20.5953L24.2892 28.246C24.7108 27.9113 25.1394 27.5809 25.5805 27.2568L24.276 15.1185L23.9615 15.0374L21.9668 30.2106C22.0979 30.0926 22.2271 29.9733 22.3607 29.8553" fill="white"/>
<path d="M21.8622 33.8383C21.8849 33.6222 22.0393 32.3951 22.246 30.7683C22.1143 30.8826 21.9794 30.9944 21.8502 31.1087L21.5735 33.2113C21.4683 33.9745 21.3637 34.6283 21.3114 34.737C21.1796 35.0904 21.0492 35.5813 20.1826 35.6362V35.9091H22.9651V35.6362C22.4395 35.5544 21.7046 35.3908 21.8622 33.8383Z" fill="white"/>
<path d="M25.666 28.0466C25.223 28.3707 24.7906 28.6986 24.3652 29.029L25.0106 35.6355H24.4068V35.9084H27.2164V35.6355H26.4815" fill="white"/>
<path d="M37.1699 21.6182C36.7105 21.7968 36.2473 21.9872 35.7784 22.1896V35.6355H34.7549V35.9084H38.1928V35.6355H37.1699" fill="white"/>
<path d="M35.7784 21.5612C36.2473 21.3788 36.7098 21.214 37.1699 21.0585V15.8271H38.1928V15.5542H34.7549V15.8271H35.7784" fill="white"/>
<path d="M28.081 25.7579C34.1463 21.7911 40.3036 20.0632 44.9005 19.656C40.2916 19.5773 33.949 21.0792 27.7722 25.1197C21.5953 29.1589 16.9638 34.6107 14.625 39.2332C17.3148 34.8749 22.015 29.7253 28.081 25.7579Z" fill="white"/>
<path d="M28.2029 26.328C34.2688 22.3606 40.3033 20.0637 44.9002 19.6559C40.2907 19.5779 34.0703 21.6499 27.8941 25.6898C21.7179 29.7296 16.9628 34.6113 14.624 39.2337C17.3138 34.8754 22.137 30.2954 28.2023 26.3286" fill="#184891"/>
<path d="M10.3763 18.4857L10.1135 18.969L9.50281 18.7505L9.18392 19.3381L9.70448 19.7222L9.46563 20.1618L6.61133 18.0129L6.99199 17.3123M8.79317 19.0515L9.04338 18.5906L7.34365 17.9767L7.33861 17.9861L8.79317 19.0521V19.0515Z" fill="#184891"/>
<path d="M7.5498 16.3731L7.84223 15.9128L10.8383 17.7801L10.5453 18.2403" fill="#184891"/>
<path d="M11.7471 16.4891C11.6557 16.4604 11.599 16.4435 11.3658 16.2749L10.9158 15.9502C10.6505 15.7578 10.4873 15.7753 10.3404 15.9745L10.2289 16.1269L11.3948 16.9681L11.0715 17.4078L8.20898 15.3413L8.69678 14.6787C9.03143 14.2228 9.39255 14.1841 9.83371 14.5026L10.0587 14.665C10.353 14.8773 10.474 15.1046 10.4236 15.3688L10.4318 15.3744C10.6877 15.2227 10.9524 15.3045 11.2517 15.5199L11.6929 15.8384C11.8322 15.939 11.9374 16.0083 12.0761 16.0414M8.94131 15.1971L9.82048 15.8315L9.94715 15.6598C10.0675 15.4962 10.0669 15.3426 9.83812 15.1777L9.55641 14.9741C9.35222 14.8261 9.21231 14.8299 9.09761 14.9854L8.94194 15.1971H8.94131Z" fill="#184891"/>
<path d="M11.3462 12.8459L11.6922 13.1457C12.1188 13.5148 12.1737 13.9169 11.8126 14.3266L11.6418 14.5208L12.6426 15.387L12.2814 15.7967L9.61621 13.491L10.1475 12.8878C10.5092 12.4775 10.9183 12.4775 11.3449 12.8466M10.358 13.4105L11.2605 14.1911L11.4313 13.9969C11.546 13.8664 11.5472 13.7433 11.3569 13.5785L10.9567 13.2325C10.7664 13.0683 10.6429 13.0864 10.5281 13.2163L10.358 13.4105Z" fill="#184891"/>
<path d="M11.6556 12.4875C11.263 12.0822 11.251 11.6488 11.6392 11.2791C12.0274 10.9094 12.4642 10.9387 12.8568 11.3434L14.133 12.6592C14.5257 13.0632 14.5376 13.4979 14.1494 13.8676C13.7612 14.2373 13.3251 14.2079 12.9324 13.8033M13.3522 13.4517C13.5274 13.6321 13.6736 13.6259 13.799 13.506C13.925 13.3861 13.9377 13.2418 13.7618 13.0614L12.4365 11.695C12.2612 11.5145 12.1157 11.5207 11.9896 11.6406C11.8636 11.7605 11.851 11.9048 12.0262 12.0859L13.3515 13.4523L13.3522 13.4517Z" fill="#184891"/>
<path d="M15.8977 12.3132C15.8177 12.2614 15.7672 12.2301 15.587 12.0072L15.2391 11.5769C15.0343 11.3227 14.8723 11.2971 14.6776 11.4514L14.5295 11.5682L15.4301 12.6829L15.0021 13.0232L12.79 10.2861L13.4367 9.77338C13.8803 9.42116 14.2383 9.47737 14.5799 9.8989L14.7538 10.1144C14.9807 10.396 15.0368 10.6464 14.9189 10.8881L14.9252 10.8962C15.2114 10.8163 15.4464 10.9637 15.6771 11.2491L16.0187 11.6712C16.1258 11.8042 16.209 11.8991 16.3338 11.9666M13.535 10.3373L14.2144 11.1785L14.3814 11.0448C14.5414 10.9181 14.5818 10.7713 14.4047 10.5521L14.1866 10.2823C14.0284 10.0869 13.8929 10.0532 13.7411 10.1737L13.5343 10.3373H13.535Z" fill="#184891"/>
<path d="M14.5156 8.94834L15.928 8.0166L16.2078 8.43314L15.7301 8.74851L17.4128 11.249L16.9565 11.5506L15.2738 9.05013L14.7961 9.3655" fill="#184891"/>
<path d="M19.3382 10.1457L18.8466 10.3868L17.2773 7.24058L17.7702 7.00015L18.442 8.34843L19.0004 8.07428L18.3286 6.72663L18.8296 6.4812L20.3982 9.62676L19.8972 9.87219L19.2254 8.52391L18.6657 8.79744" fill="#184891"/>
<path d="M20.5654 7.37542L21.2687 7.10814L21.4496 7.57526L20.7469 7.84316L21.1174 8.80238L22.0023 8.46578L22.1832 8.93353L20.7859 9.46559L19.5186 6.19076L20.9164 5.65869L21.0966 6.12644L20.2118 6.46366" fill="#184891"/>
<path d="M24.2324 8.34008L23.6999 8.48996L23.4333 7.90294L22.7854 8.08529L22.8699 8.72289L22.3846 8.85841L21.9561 5.33378L22.7287 5.11646M22.7211 7.60755L23.2304 7.46517L22.4917 5.829L22.4823 5.8315L22.7211 7.60818V7.60755Z" fill="#184891"/>
<path d="M23.8506 4.843L24.3901 4.74121L24.9598 7.69318L25.8471 7.5252L25.9423 8.01729L24.5161 8.28708" fill="#184891"/>
<path d="M25.3896 4.55455L27.0742 4.35596L27.1347 4.85368L26.565 4.9205L26.9243 7.90432L26.3797 7.96864L26.0199 4.98482L25.4495 5.05227" fill="#184891"/>
<path d="M28.3096 7.80193L27.7613 7.81692L27.6611 4.3104L28.2094 4.29541L28.2523 5.79794L28.8756 5.78108L28.8327 4.27793L29.3905 4.26294L29.4913 7.76946L28.9329 7.78507L28.8901 6.28192L28.2668 6.29878" fill="#184891"/>
<path d="M32.5193 8.00555L31.9691 7.94747L31.9427 7.30549L31.2733 7.23493L31.1114 7.85755L30.6104 7.80446L31.5412 4.37476L32.3397 4.45844M31.3944 6.76781L31.92 6.82276L31.8519 5.03172L31.8418 5.03047L31.3944 6.76781Z" fill="#184891"/>
<path d="M34.6071 7.08386L34.5145 7.54099C34.4036 8.09116 34.0664 8.35158 33.5383 8.24666C33.0101 8.14112 32.7996 7.77205 32.9106 7.22187L33.2723 5.4327C33.3832 4.88253 33.721 4.62211 34.2492 4.72765C34.7773 4.83257 34.9878 5.20227 34.8762 5.75244L34.8088 6.08655L34.3002 5.98538L34.3746 5.61693C34.4244 5.3715 34.3355 5.25597 34.1647 5.22225C33.9933 5.1879 33.8666 5.26034 33.8168 5.50577L33.4418 7.36363C33.3927 7.60906 33.4822 7.71897 33.653 7.75269C33.8244 7.78704 33.9498 7.72022 33.999 7.47417L34.0979 6.98269" fill="#184891"/>
<path d="M36.5908 7.64703L36.4578 8.09354C36.2971 8.63185 35.9372 8.86041 35.4211 8.70866C34.9037 8.55691 34.7278 8.17098 34.8885 7.63266L35.4104 5.88409C35.5711 5.34577 35.9309 5.11721 36.4477 5.26834C36.9645 5.42009 37.1403 5.80665 36.9803 6.34496L36.8832 6.67095L36.3853 6.52482L36.4931 6.16386C36.5649 5.92405 36.4862 5.80165 36.3198 5.75232C36.1521 5.70298 36.0192 5.76356 35.9473 6.00399L35.4053 7.82001C35.3341 8.06044 35.4129 8.17722 35.5805 8.22718C35.7482 8.27651 35.8786 8.22031 35.9505 7.97988L36.0942 7.49965" fill="#184891"/>
<path d="M37.6217 9.43921C37.628 9.34491 37.6299 9.28621 37.7371 9.0208L37.9425 8.50935C38.0648 8.20709 38.0074 8.05472 37.7761 7.96354L37.6003 7.8936L37.0659 9.21939L36.5566 9.01831L37.8688 5.76221L38.637 6.06633C39.1652 6.27491 39.2931 6.61152 39.0902 7.11361L38.9874 7.36965C38.8519 7.705 38.6597 7.87611 38.3893 7.8936L38.3862 7.90296C38.5979 8.1103 38.5835 8.3857 38.4467 8.7248L38.2438 9.22751C38.1801 9.38613 38.1379 9.50416 38.1398 9.64467M38.1902 6.42916L37.7875 7.42897L37.9866 7.50766C38.177 7.5826 38.3257 7.54451 38.4303 7.28472L38.5595 6.96373C38.6534 6.73079 38.6162 6.59778 38.4353 6.52658L38.1902 6.42916Z" fill="#184891"/>
<path d="M39.8484 8.22158L40.5202 8.5588L40.2914 9.00594L39.6196 8.66809L39.1501 9.58422L39.9959 10.0089L39.7671 10.4554L38.4316 9.78468L40.0343 6.65723L41.3691 7.32855L41.1404 7.77507L40.2946 7.35041" fill="#184891"/>
<path d="M41.9621 7.65869L42.6969 8.11457C43.162 8.40246 43.2263 8.80276 42.9263 9.27862L41.9772 10.7824C41.6766 11.2576 41.2846 11.375 40.8195 11.0871L40.084 10.6313M42.1581 8.37124L40.8169 10.4951L41.0791 10.6575C41.2272 10.7493 41.364 10.7281 41.4982 10.5151L42.4744 8.9695C42.6087 8.75717 42.5683 8.6254 42.4202 8.5336L42.1581 8.37124Z" fill="#184891"/>
<path d="M43.9117 8.9165L44.3554 9.23624L42.2738 12.0727L41.8301 11.7536" fill="#184891"/>
<path d="M44.7661 9.5293L46.0713 10.6015L45.7486 10.9862L45.3075 10.6247L43.3695 12.9384L42.9473 12.5918L44.8846 10.2774L44.4428 9.91523" fill="#184891"/>
<path d="M45.1508 14.5857L44.7537 14.2041L45.1325 13.682L44.6497 13.2174L44.1342 13.6084L43.7725 13.2611L46.6375 11.1304L47.2141 11.6849M45.0335 12.9245L45.4129 13.2892L46.473 11.8379L46.4654 11.8311L45.0329 12.9245H45.0335Z" fill="#184891"/>
<path d="M47.7668 12.2339L48.8867 13.4954L48.5067 13.8263L48.1286 13.3992L45.8497 15.3857L45.4873 14.9773L47.7662 12.9914L47.3874 12.5649" fill="#184891"/>
<path d="M49.195 13.8938L49.5309 14.3234L46.7314 16.4711L46.3955 16.0408" fill="#184891"/>
<path d="M49.2165 15.2995C49.6866 14.9872 50.119 15.0509 50.4196 15.4943C50.7189 15.9377 50.6143 16.3586 50.1442 16.6708L48.6152 17.6856C48.1451 17.9979 47.7115 17.9348 47.4115 17.4908C47.1122 17.0474 47.2168 16.6271 47.6876 16.3143M47.9636 16.7851C47.7531 16.9244 47.7348 17.068 47.8319 17.2117C47.9289 17.3553 48.0701 17.3921 48.28 17.2529L49.8675 16.1987C50.0774 16.0595 50.0963 15.9158 49.9992 15.7722C49.9015 15.6286 49.7604 15.5917 49.5505 15.731L47.963 16.7851H47.9636Z" fill="#184891"/>
<path d="M50.5919 17.6876L50.5868 17.6795L48.3363 18.8929L48.1006 18.4632L51.2082 16.7871L51.5372 17.3866L49.9415 18.8717L49.9459 18.8804L51.8063 17.8768L52.0401 18.3027L48.9319 19.9783L48.6628 19.488" fill="#184891"/>
<path d="M7.92576 34.5857L7.8287 34.0237L8.4583 33.8182L8.34044 33.1344L7.67808 33.1482L7.58984 32.6373L11.2489 32.5999L11.3889 33.4148M8.83643 33.1238L8.92845 33.6602L10.6843 33.092L10.6824 33.0813L8.83643 33.1238Z" fill="#5392C8"/>
<path d="M11.5702 34.2253L11.7138 34.7718L8.21986 35.6748L8.07617 35.1277" fill="#5392C8"/>
<path d="M8.80616 37.4739C8.88368 37.414 8.92969 37.3753 9.20699 37.2785L9.74205 37.0905C10.0584 36.9794 10.1372 36.832 10.0502 36.5897L9.98469 36.4054L8.59819 36.8925L8.40723 36.3605L11.8123 35.1633L12.0997 35.9671C12.297 36.5191 12.1243 36.8463 11.5987 37.0318L11.3315 37.1255C10.9811 37.2485 10.7176 37.216 10.521 37.0181L10.5109 37.0212C10.4945 37.3272 10.2727 37.5033 9.91725 37.6276L9.39164 37.8124C9.22652 37.8705 9.10678 37.9186 8.99964 38.016M11.5161 35.8671L10.47 36.235L10.5443 36.4429C10.6155 36.6415 10.7466 36.7314 11.0183 36.6359L11.3542 36.5179C11.5974 36.4323 11.675 36.3124 11.6075 36.1238L11.5155 35.8671H11.5161Z" fill="#5392C8"/>
<path d="M12.4534 38.9591L12.0312 39.1621C11.5112 39.4119 11.106 39.2988 10.8571 38.7905L10.7392 38.5501L9.51847 39.1371L9.26953 38.6288L12.5184 37.0669L12.8851 37.815C13.1341 38.3234 12.9727 38.7093 12.4534 38.9591ZM12.3034 37.7982L11.2031 38.3271L11.3209 38.5669C11.3991 38.7287 11.5169 38.7811 11.7488 38.6693L12.2366 38.4352C12.4686 38.3234 12.4994 38.2003 12.4207 38.038L12.3034 37.7982Z" fill="#5392C8"/>
<path d="M12.612 39.1814C13.1011 38.8772 13.5441 38.9597 13.841 39.4293C14.1391 39.8995 14.0218 40.3298 13.5321 40.6352L11.9414 41.6256C11.4518 41.9304 11.0093 41.8473 10.7119 41.3777C10.4144 40.9075 10.5316 40.4772 11.0207 40.1724M11.2936 40.6702C11.0749 40.8063 11.0528 40.9537 11.1493 41.1061C11.2457 41.2584 11.3894 41.3021 11.6074 41.166L13.2593 40.1381C13.4779 40.002 13.5006 39.8546 13.4042 39.7022C13.3078 39.5498 13.1641 39.5061 12.946 39.6416L11.2936 40.6702Z" fill="#5392C8"/>
<path d="M12.3723 43.5941C12.4259 43.5129 12.4567 43.4617 12.6874 43.2806L13.1311 42.9303C13.3939 42.7235 13.4191 42.5587 13.2578 42.3576L13.1355 42.2046L11.9853 43.112L11.6299 42.6698L14.4552 40.4417L14.9915 41.1086C15.3596 41.567 15.3035 41.9329 14.868 42.2764L14.6462 42.4513C14.3556 42.6805 14.0947 42.7348 13.8439 42.6105L13.8363 42.6174C13.9208 42.9115 13.7689 43.1494 13.4746 43.3824L13.0384 43.7265C12.9017 43.8345 12.804 43.9182 12.734 44.0456M14.4067 41.2023L13.5388 41.8874L13.6775 42.0597C13.8105 42.2246 13.9636 42.2677 14.1892 42.0897L14.4678 41.8699C14.6701 41.7106 14.7041 41.5726 14.5775 41.4159L14.4067 41.2023Z" fill="#5392C8"/>
<path d="M15.6375 41.8992L16.8747 43.1419L16.5072 43.501L16.0888 43.0807L13.8836 45.234L13.4834 44.8318L15.6886 42.6785L15.2701 42.2576" fill="#5392C8"/>
<path d="M17.6615 43.7414C18.0894 44.0911 18.0982 44.5239 17.7302 44.9648L17.6577 45.0516L17.2424 44.7112L17.3375 44.5969C17.502 44.3996 17.4844 44.2591 17.3445 44.1448C17.2046 44.0305 17.0621 44.0399 16.8976 44.2366C16.73 44.4377 16.6928 44.6594 16.7735 45.1434C16.8743 45.7635 16.7993 46.087 16.5365 46.4023C16.1685 46.8439 15.7342 46.9125 15.3032 46.5591C14.8715 46.2056 14.8582 45.7704 15.2263 45.3288L15.3675 45.1596L15.7828 45.4999L15.6189 45.6967C15.4544 45.894 15.4828 46.037 15.6227 46.1513C15.7626 46.2662 15.9101 46.2668 16.0739 46.0695C16.2416 45.8684 16.2788 45.6467 16.1981 45.1627C16.0973 44.5426 16.1716 44.2185 16.4351 43.9037C16.8025 43.4622 17.2329 43.3904 17.6602 43.7408" fill="#5392C8"/>
<path d="M19.4775 47.72L19.2317 48.1284C18.9355 48.6199 18.517 48.7529 18.0362 48.4688C17.5559 48.1846 17.4759 47.7562 17.7721 47.2648L18.7351 45.6673C19.0313 45.1758 19.4498 45.0422 19.9306 45.3263C20.4115 45.6099 20.4909 46.0389 20.1953 46.5297L20.0151 46.8282L19.5525 46.5547L19.751 46.2256C19.8834 46.0058 19.8355 45.8647 19.6798 45.7722C19.5241 45.6804 19.3754 45.706 19.2437 45.9252L18.2435 47.5839C18.1112 47.8037 18.1616 47.9405 18.3172 48.0329C18.4729 48.1247 18.6185 48.1035 18.7508 47.8843L19.0155 47.4452" fill="#5392C8"/>
<path d="M20.5094 46.694C20.7501 46.1732 21.1654 46.0015 21.6747 46.2319C22.1839 46.4623 22.3244 46.8864 22.0843 47.4072L21.3035 49.1002C21.0633 49.6216 20.6474 49.7928 20.1382 49.5623C19.6289 49.3313 19.4878 48.9078 19.7285 48.3864M20.2327 48.6543C20.1256 48.8872 20.1886 49.0221 20.3537 49.0971C20.5182 49.172 20.6631 49.1302 20.7703 48.8979L21.5814 47.1387C21.6892 46.9064 21.6255 46.7708 21.4604 46.6959C21.2959 46.621 21.1509 46.6628 21.0438 46.8951L20.2327 48.6537V48.6543Z" fill="#5392C8"/>
<path d="M23.2659 46.9126L22.3968 49.5354C22.3162 49.779 22.3956 49.9014 22.5682 49.9576C22.7403 50.0132 22.8777 49.9613 22.9577 49.7184L23.8268 47.0955L24.3386 47.2629L23.4808 49.8514C23.3006 50.396 22.9218 50.6171 22.3899 50.4428C21.858 50.2692 21.6859 49.8689 21.8655 49.325L22.7233 46.7358" fill="#5392C8"/>
<path d="M24.9804 48.4215L24.9703 48.4196L24.4453 50.9594L23.9424 50.8576L24.6671 47.3511L25.368 47.4928L25.4978 49.7067L25.5079 49.7085L25.9415 47.6096L26.4387 47.7108L25.714 51.2173L25.1404 51.1011" fill="#5392C8"/>
<path d="M28.2507 50.1393L28.2079 50.6133C28.1562 51.1835 27.8386 51.4838 27.2814 51.4345C26.7237 51.3852 26.464 51.0336 26.5151 50.4628L26.6808 48.6087C26.7325 48.0379 27.0501 47.7381 27.6085 47.7875C28.1663 47.8368 28.4253 48.1884 28.3743 48.7592L28.3434 49.1052L27.8064 49.0577L27.8405 48.6761C27.8631 48.4213 27.7585 48.3146 27.5776 48.2983C27.3968 48.2821 27.2745 48.3689 27.2518 48.6237L27.0791 50.549C27.0558 50.8038 27.1611 50.9056 27.3426 50.9218C27.5228 50.9374 27.6451 50.8562 27.6671 50.6014L27.7131 50.0925" fill="#5392C8"/>
<path d="M28.8092 47.8931L29.379 47.9024L29.3197 51.4826L28.75 51.4733" fill="#5392C8"/>
<path d="M29.7939 47.9023L30.363 47.8655L30.5641 50.928L31.5 50.8674L31.5334 51.3776L30.0284 51.4757" fill="#5392C8"/>
<path d="M32.3867 47.6352L32.9464 47.5303L33.6194 51.0487L33.0592 51.1536" fill="#5392C8"/>
<path d="M34.1147 48.2783L34.1053 48.2814L34.813 50.7757L34.3189 50.913L33.3408 47.469L34.0303 47.2773L35.1697 49.1845L35.1792 49.182L34.5943 47.1199L35.0828 46.9844L36.0609 50.4284L35.4968 50.5852" fill="#5392C8"/>
<path d="M35.2773 46.9144L36.9115 46.2593L37.105 46.7333L36.5523 46.955L37.7125 49.7995L37.1838 50.0112L36.0235 47.1667L35.4708 47.3884" fill="#5392C8"/>
<path d="M38.3231 47.2311L39.0151 46.8689L39.2565 47.321L38.5639 47.6838L39.0586 48.6106L39.929 48.1541L40.1703 48.6062L38.7952 49.3262L37.1074 46.1613L38.4826 45.4419L38.7233 45.894L37.853 46.3499" fill="#5392C8"/>
<path d="M41.7574 47.5908C41.6793 47.5315 41.6308 47.4965 41.4663 47.2548L41.1493 46.7889C40.9615 46.5142 40.7976 46.4755 40.5833 46.6191L40.4201 46.7277L41.2419 47.9349L40.7686 48.2509L38.75 45.2858L39.4634 44.8087C39.9537 44.4808 40.3167 44.5645 40.6281 45.0223L40.7869 45.2552C40.9949 45.5599 41.0283 45.821 40.884 46.0595L40.8896 46.0677C41.1921 46.0071 41.419 46.1757 41.6301 46.4848L41.9415 46.9426C42.0398 47.0868 42.1154 47.1892 42.2377 47.2679M39.5107 45.3926L40.1308 46.3037L40.3161 46.1801C40.492 46.062 40.5474 45.914 40.3861 45.6767L40.1869 45.3845C40.0432 45.1728 39.9065 45.1284 39.7388 45.2402L39.5107 45.3926Z" fill="#5392C8"/>
<path d="M41.4745 44.5496L41.4664 44.5564L43.1711 46.5255L42.781 46.8564L40.4277 44.1386L40.971 43.6759L42.8163 44.9324L42.8245 44.9255L41.4159 43.2981L41.801 42.9702L44.1543 45.6886L43.71 46.0671" fill="#5392C8"/>
<path d="M45.9653 43.8102L45.5746 44.2286L45.0269 43.8595L44.5517 44.3684L44.9652 44.8812L44.6097 45.2621L42.3535 42.4082L42.9201 41.8005M44.241 43.985L44.6141 43.5853L43.0909 42.5518L43.084 42.5593L44.241 43.985Z" fill="#5392C8"/>
<path d="M43.2344 41.4633L44.2995 40.0725L44.7104 40.3816L44.3505 40.8525L46.8166 42.7085L46.4719 43.1587L44.0051 41.3021L43.6453 41.7718" fill="#5392C8"/>
<path d="M44.4277 39.8539L44.7365 39.3787L47.7736 41.3158L47.4648 41.7917" fill="#5392C8"/>
<path d="M45.7041 39.4892C45.1937 39.2213 45.0456 38.8004 45.3084 38.3101C45.5712 37.8205 46.006 37.7062 46.5165 37.9742L48.1753 38.8453C48.6851 39.1139 48.8332 39.5348 48.5711 40.0244C48.3082 40.514 47.8734 40.6289 47.3629 40.3603M47.6629 39.8782C47.891 39.9975 48.0309 39.9432 48.116 39.7846C48.2017 39.6259 48.1677 39.4804 47.9402 39.3605L46.2178 38.4556C45.9896 38.3364 45.8497 38.3907 45.7646 38.5487C45.6789 38.7079 45.7123 38.8528 45.9405 38.9727L47.6629 39.8782Z" fill="#5392C8"/>
<path d="M46.9999 37.1662L46.9961 37.1756L49.4325 38.1179L49.246 38.5913L45.8818 37.2911L46.1421 36.631L48.3649 36.8783L48.3693 36.8689L46.3551 36.0902L46.5398 35.6218L49.9039 36.922L49.6909 37.4622" fill="#5392C8"/>
<path d="M50.6071 34.4034L50.4628 34.9554L49.8029 34.8867L49.6277 35.5581L50.2372 35.816L50.1061 36.3181L46.7539 34.863L46.9631 34.0618M49.1715 35.367L49.3089 34.8399L47.4724 34.6432L47.4692 34.6532L49.1708 35.3663L49.1715 35.367Z" fill="#5392C8"/>
<path d="M47.1387 33.2762L47.2219 32.7173L50.2841 33.1688L50.4222 32.2483L50.932 32.3239L50.7114 33.8026" fill="#5392C8"/>
<path d="M2.43066 29.1494C2.43066 25.4381 3.21152 21.9034 4.61755 18.696C6.17421 19.7508 6.88889 21.6518 6.42315 23.4572C5.953 25.2788 5.70217 27.186 5.70217 29.15C5.70217 41.8678 16.128 52.225 28.9916 52.3543V55.5841C14.3231 55.4549 2.43066 43.6476 2.43066 29.15" fill="white"/>
<path d="M8.40234 29.4941C8.40234 18.1565 17.7209 8.96582 29.2156 8.96582C40.7103 8.96582 50.0282 18.1565 50.0282 29.4941" stroke="#184891" stroke-width="1.74" stroke-miterlimit="10"/>
<path d="M36.4523 0.740723H36.4504L36.4428 0.754461C35.6198 2.19766 36.3313 4.00369 37.9125 4.56074C44.9062 7.02248 50.5643 12.2757 53.5113 18.9509C53.6569 18.8223 53.8094 18.6986 53.9745 18.5874C55.3799 21.7955 56.1608 25.3301 56.1608 29.0421C56.1608 36.3199 53.1621 42.9183 48.3214 47.7031V49.7277H50.8889C51.8941 48.6686 52.8199 47.5364 53.66 46.3411C57.0261 41.5506 58.9993 35.7372 58.9993 29.4673C58.9999 15.6486 49.4192 4.03679 36.4523 0.740723Z" fill="#5392C8"/>
<path d="M2.40306 29.0413C2.40306 25.3293 3.18391 21.7953 4.58995 18.5873C4.87481 18.7803 5.13068 19.0026 5.35693 19.2468C8.26606 12.4298 13.9904 7.05919 21.0874 4.5606C22.668 4.00418 23.3795 2.19753 22.5571 0.75495L22.5495 0.741211H22.5476C9.58072 4.03603 0 15.6484 0 29.4672C0 35.7371 1.97387 41.5505 5.33929 46.341C6.17938 47.5362 7.10518 48.6684 8.1104 49.7276H10.6786V48.117C5.58444 43.3022 2.40306 36.5339 2.40306 29.0419" fill="#5392C8"/>
<path d="M55.7287 29.4674C55.7287 25.7554 54.9478 22.2214 53.5418 19.0134C51.9851 20.0688 51.2705 21.9691 51.7356 23.7746C52.2057 25.5962 52.4572 27.5034 52.4572 29.4674C52.4572 42.1471 42.0925 52.4781 29.2818 52.6673C16.4706 52.4781 6.10584 42.1471 6.10584 29.4674C6.10584 27.5028 6.3573 25.5962 6.82682 23.7746C7.29256 21.9691 6.57788 20.0688 5.02185 19.0134C3.61581 22.2214 2.83496 25.7554 2.83496 29.4674C2.83496 43.8888 14.6051 55.6442 29.1678 55.8934V55.9009C29.2062 55.9009 29.2434 55.8978 29.2818 55.8972C29.3196 55.8972 29.3575 55.9003 29.3953 55.9009V55.8934C43.9579 55.6442 55.7287 43.8894 55.7287 29.4674Z" fill="#184891"/>
<path d="M49.3103 44.5707C44.7241 50.6152 37.4525 54.5851 29.2791 54.6943C20.9028 54.5819 13.473 50.4153 8.9108 44.1167V48.3164H5.37207C6.09116 49.2188 6.86382 50.0881 7.69257 50.9168C13.1579 56.3855 20.3746 59.5641 28.1094 59.9338L29.1732 59.9713L29.2558 59.97L29.3837 59.9713L30.4476 59.9338C38.183 59.5641 45.3997 56.3848 50.865 50.9168C51.6938 50.0881 52.4664 49.2188 53.1855 48.3164H49.3096" fill="#184891"/>
<path d="M49.3103 44.5707C44.7241 50.6152 37.4525 54.5851 29.2791 54.6943C20.9028 54.5819 13.473 50.4153 8.9108 44.1167V48.3164H5.37207C6.09116 49.2188 6.86382 50.0881 7.69257 50.9168C13.1579 56.3855 20.3746 59.5641 28.1094 59.9338L29.1732 59.9713L29.2558 59.97L29.3837 59.9713L30.4476 59.9338C38.183 59.5641 45.3997 56.3848 50.865 50.9168C51.6938 50.0881 52.4664 49.2188 53.1855 48.3164H49.3096V44.5701L49.3103 44.5707Z" stroke="white" stroke-width="0.89" stroke-miterlimit="10"/>
<path d="M15.6451 55.2419L14.955 54.8341L15.0855 54.2114L14.1276 53.6438L13.6353 54.0534L12.9629 53.655L15.4592 51.666L16.2281 52.1213M15.2078 53.6469L15.4403 52.5428L14.57 53.2691L15.2071 53.6463L15.2078 53.6469Z" fill="white"/>
<path d="M17.9309 56.3285C17.7242 56.2411 17.5471 56.1299 17.399 55.9963C17.2503 55.862 17.1394 55.709 17.065 55.5366C16.9913 55.3649 16.9579 55.1751 16.9661 54.9683C16.9736 54.7623 17.0284 54.5418 17.1287 54.3095C17.2226 54.0928 17.3404 53.9098 17.4822 53.7618C17.624 53.6132 17.7854 53.5027 17.9656 53.4302C18.1389 53.3603 18.328 53.3297 18.5347 53.3391C18.742 53.3484 18.9506 53.3984 19.1618 53.4877C19.279 53.537 19.3811 53.5882 19.4687 53.6407C19.5569 53.6931 19.6363 53.7468 19.7069 53.8018C19.7794 53.8605 19.8437 53.9186 19.8991 53.976C19.954 54.0335 20.0019 54.0859 20.0422 54.1315L19.7548 54.7947L19.6729 54.7598C19.6508 54.7161 19.6218 54.6623 19.5865 54.5999C19.5512 54.5374 19.5084 54.4725 19.4586 54.4044C19.4069 54.3364 19.3471 54.2727 19.2796 54.2115C19.2122 54.1515 19.1321 54.1016 19.042 54.0628C18.9412 54.0204 18.8391 53.9954 18.7351 53.9879C18.6317 53.9804 18.5252 53.9966 18.4168 54.036C18.3141 54.0747 18.2145 54.1409 18.12 54.2371C18.0248 54.3326 17.9416 54.4619 17.8711 54.6255C17.7973 54.7972 17.7595 54.9502 17.7589 55.0858C17.7583 55.2213 17.7809 55.338 17.8269 55.4361C17.8736 55.5354 17.9372 55.6191 18.0179 55.6878C18.0986 55.7558 18.1843 55.8095 18.2744 55.8476C18.3614 55.8845 18.4534 55.9082 18.5492 55.9188C18.6456 55.9294 18.7389 55.9282 18.8303 55.9151C18.9065 55.9051 18.9796 55.8913 19.049 55.8739C19.1183 55.8557 19.1763 55.8395 19.2223 55.8239L19.2973 55.8558L19.0137 56.5096C18.9311 56.5108 18.8523 56.5115 18.7773 56.5115C18.7023 56.5115 18.6261 56.5065 18.5473 56.4971C18.4458 56.484 18.3526 56.4678 18.2675 56.4471C18.1818 56.4272 18.0696 56.3872 17.9309 56.3285Z" fill="white"/>
<path d="M21.4526 57.5321C21.2365 57.4715 21.0461 57.3841 20.8816 57.2698C20.7172 57.1555 20.5873 57.0181 20.4915 56.8564C20.3957 56.6952 20.339 56.5116 20.3195 56.3056C20.3006 56.0995 20.3264 55.8747 20.3957 55.6311C20.4607 55.4044 20.5539 55.2083 20.6762 55.0428C20.7978 54.8773 20.9428 54.7468 21.1123 54.6519C21.2743 54.5601 21.4589 54.5064 21.665 54.4895C21.8717 54.4733 22.0847 54.4952 22.306 54.5576C22.4282 54.592 22.5366 54.6301 22.6305 54.6706C22.7244 54.7119 22.8101 54.7543 22.887 54.7999C22.9671 54.8493 23.0383 54.898 23.1007 54.9485C23.1631 54.9985 23.2166 55.0441 23.2626 55.0847L23.0641 55.7785L22.9784 55.7541C22.9507 55.7135 22.9154 55.6642 22.8725 55.6061C22.829 55.5487 22.7786 55.4894 22.72 55.4288C22.6601 55.3682 22.5921 55.3114 22.5171 55.2602C22.4421 55.209 22.357 55.1702 22.2625 55.1434C22.1572 55.1134 22.0526 55.1022 21.9486 55.1078C21.844 55.1134 21.7413 55.1428 21.6392 55.1958C21.5415 55.247 21.452 55.327 21.3701 55.4331C21.2881 55.5399 21.2226 55.6792 21.1734 55.8509C21.1224 56.0295 21.1047 56.1869 21.1218 56.3218C21.1388 56.4561 21.176 56.5691 21.2346 56.6603C21.2932 56.7533 21.3675 56.8276 21.4564 56.8851C21.5453 56.9425 21.6367 56.985 21.7318 57.0112C21.8226 57.0368 21.9165 57.0487 22.0135 57.0468C22.1106 57.045 22.2026 57.0325 22.2915 57.0075C22.3652 56.9881 22.4364 56.965 22.5032 56.9388C22.5694 56.9119 22.6249 56.8882 22.6683 56.8676L22.7465 56.8895L22.5505 57.5745C22.4686 57.5858 22.3904 57.5964 22.316 57.6058C22.2423 57.6157 22.1654 57.6201 22.0866 57.6201C21.9839 57.6201 21.8894 57.6157 21.8024 57.6064C21.7148 57.597 21.5988 57.572 21.4533 57.5314" fill="white"/>
<path d="M26.6593 58.4431L25.719 58.3088L25.0642 57.1129L24.7075 57.0617L24.5505 58.1414L23.7842 58.0315L24.214 55.0864L25.5053 55.2713C25.6818 55.2969 25.8318 55.3287 25.9559 55.3662C26.0801 55.4043 26.1929 55.4642 26.2944 55.5461C26.3971 55.6279 26.474 55.7259 26.5244 55.8408C26.5761 55.9551 26.5893 56.0912 26.566 56.2499C26.5345 56.4672 26.4576 56.637 26.3353 56.7601C26.2131 56.8825 26.0498 56.9755 25.8475 57.0392M25.7568 56.2286C25.7669 56.1549 25.7612 56.0894 25.7379 56.0325C25.7152 55.9751 25.6686 55.9264 25.598 55.8845C25.5488 55.8558 25.4902 55.8346 25.4209 55.8202C25.3522 55.8058 25.2715 55.7915 25.1795 55.7784L24.9009 55.7384L24.7856 56.5315L25.0219 56.5652C25.1448 56.5827 25.2488 56.5915 25.3333 56.5915C25.4177 56.5915 25.4915 56.574 25.5539 56.5402C25.6137 56.5071 25.6591 56.4678 25.6906 56.4216C25.7221 56.3754 25.7448 56.3111 25.7568 56.228" fill="white"/>
<path d="M29.8957 58.5217L27.7139 58.4861L27.7643 55.511L29.9455 55.5472L29.9361 56.1224L28.5281 56.0993L28.5193 56.6126L29.8264 56.6345L29.8163 57.2096L28.5098 57.1884L28.4972 57.9234L29.9052 57.9465" fill="white"/>
<path d="M33.9506 56.6714C33.9822 56.9468 33.9475 57.201 33.8448 57.4327C33.742 57.665 33.6009 57.8504 33.4194 57.9891C33.2839 58.0934 33.1301 58.1721 32.9599 58.2264C32.7891 58.2801 32.5849 58.3207 32.3461 58.3482L31.2892 58.4674L30.9482 55.5111L32.0354 55.3881C32.2793 55.36 32.4923 55.3568 32.6744 55.3768C32.8559 55.3974 33.0122 55.4374 33.1414 55.498C33.362 55.5985 33.5441 55.7478 33.6872 55.9457C33.8309 56.1437 33.9185 56.3848 33.9519 56.6708M33.1521 56.7557C33.1295 56.5615 33.074 56.3991 32.9864 56.2686C32.8988 56.1387 32.7728 56.0438 32.6083 55.9826C32.5244 55.9532 32.4406 55.9364 32.3568 55.932C32.2723 55.9276 32.1469 55.9345 31.9812 55.9532L31.7852 55.9751L31.9988 57.8255L32.1942 57.8036C32.3776 57.783 32.5118 57.7593 32.5957 57.7324C32.6795 57.7062 32.7601 57.6675 32.837 57.6138C32.9688 57.5182 33.0595 57.4002 33.1099 57.2603C33.1603 57.1198 33.1742 56.9518 33.1515 56.7557" fill="white"/>
<path d="M36.9819 57.4988L35.2639 57.9085L35.1392 57.3952L35.6207 57.2809L35.1675 55.4137L34.686 55.528L34.5625 55.0146L36.2799 54.6062L36.4047 55.1189L35.9238 55.2332L36.3769 57.101L36.8578 56.9861" fill="white"/>
<path d="M39.6468 54.0755L38.7613 54.3933L39.5863 56.6503L38.8553 56.9132L38.0297 54.6563L37.1442 54.9747L36.9463 54.4333L39.4496 53.5347" fill="white"/>
<path d="M43.5031 54.8655L41.5582 55.8465L40.1963 53.1943L42.1412 52.2139L42.4046 52.7266L41.1492 53.3592L41.3843 53.8169L42.5496 53.2299L42.813 53.7426L41.6477 54.3296L41.9842 54.9854L43.2397 54.3527" fill="white"/>
<path d="M46.1905 51.3451C46.3493 51.5731 46.4395 51.8135 46.4596 52.0658C46.4798 52.3181 46.4432 52.5479 46.3487 52.7552C46.2781 52.9101 46.1811 53.0519 46.0563 53.1793C45.9321 53.3066 45.7708 53.4378 45.5729 53.5739L44.6975 54.1734L42.9902 51.7261L43.8902 51.1097C44.0925 50.971 44.2784 50.868 44.4486 50.8012C44.6187 50.7337 44.775 50.6969 44.9175 50.69C45.1607 50.6757 45.392 50.7225 45.6126 50.8299C45.8326 50.9367 46.0254 51.1091 46.1905 51.3457M45.5256 51.7941C45.4135 51.633 45.2868 51.5156 45.1481 51.4419C45.0089 51.3682 44.8519 51.3432 44.678 51.367C44.5904 51.3801 44.5085 51.4044 44.4322 51.4394C44.3559 51.475 44.2488 51.54 44.1108 51.6343L43.9488 51.7448L45.0177 53.2767L45.179 53.1661C45.3315 53.0618 45.438 52.9782 45.5004 52.9157C45.5616 52.8533 45.6139 52.7808 45.6561 52.6984C45.7267 52.5523 45.7506 52.4061 45.7286 52.2588C45.7065 52.1114 45.6384 51.9565 45.5256 51.7941Z" fill="white"/>
</g>
<defs>
<clipPath id="clip0_7459_71565">
<rect width="59" height="60" fill="white"/>
</clipPath>
</defs>
</svg>
