<svg width="59" height="60" viewBox="0 0 59 60" fill="none" xmlns="http://www.w3.org/2000/svg">
<g clip-path="url(#clip0_7459_71566)">
<path d="M47.7128 48.47C57.7697 38.2694 57.7697 21.7311 47.7128 11.5305C37.6559 1.32998 21.3505 1.32999 11.2936 11.5305C1.2367 21.7311 1.2367 38.2694 11.2936 48.47C21.3505 58.6705 37.6559 58.6705 47.7128 48.47Z" fill="#EC1C24" stroke="#EC1C24" stroke-miterlimit="10"/>
<path d="M53.3335 30.1264C53.3335 43.4063 42.7191 54.1723 29.6262 54.1723C16.5334 54.1723 5.91895 43.4063 5.91895 30.1264C5.91895 16.8465 16.5334 6.07983 29.6262 6.07983C42.7191 6.07983 53.3335 16.8459 53.3335 30.1264Z" stroke="white" stroke-width="0.5" stroke-miterlimit="10"/>
<path d="M12.8164 15.8944L18.3127 15.8918V17.0547H16.481V28.2623H14.7014V17.0547H12.817L12.8164 15.8944Z" fill="white" stroke="white" stroke-width="0.25" stroke-miterlimit="10"/>
<path d="M17.2969 19.0654H18.8731V19.5937C18.8731 19.5937 19.7592 18.8534 20.6447 18.9861V20.6245H20.0977C20.0977 20.6245 18.9252 20.6773 18.9512 21.4704C18.9729 22.1314 18.9512 28.2358 18.9512 28.2358H17.2969V19.0654Z" fill="white" stroke="white" stroke-width="0.25" stroke-miterlimit="10"/>
<path d="M25.623 19.0391H27.3425L28.3588 24.9328L29.297 19.0655H30.3914L28.724 28.2623H27.3946L25.623 19.0391Z" fill="white" stroke="white" stroke-width="0.25" stroke-miterlimit="10"/>
<path d="M33.5365 24.4837V26.5189C33.5365 26.5189 33.5105 27.629 32.8067 27.6025C32.1029 27.5761 32.0248 26.5189 32.0248 26.5189V23.744H35.3081C35.5685 18.7491 32.7806 18.934 32.7806 18.934C30.0709 19.2774 30.2532 22.8717 30.2532 22.8717C30.2532 22.8717 29.9147 28.4478 32.8327 28.3422C35.7508 28.2365 35.282 24.4837 35.282 24.4837H33.5365ZM32.7546 19.6208C32.7546 19.6208 33.4584 19.6472 33.4844 20.9686C33.5105 22.29 33.4844 23.0038 33.4844 23.0038H32.0254V20.9422C32.0254 20.9422 31.9993 19.6208 32.7552 19.6208H32.7546Z" fill="white" stroke="white" stroke-width="0.25" stroke-miterlimit="10"/>
<path d="M41.113 24.4837V26.5189C41.113 26.5189 41.087 27.629 40.3838 27.6025C39.68 27.5761 39.6019 26.5189 39.6019 26.5189V23.744H42.8852C43.1456 18.7491 40.3578 18.934 40.3578 18.934C37.6481 19.2774 37.8304 22.8717 37.8304 22.8717C37.8304 22.8717 37.4918 28.4478 40.4099 28.3422C43.3279 28.2365 42.8592 24.4837 42.8592 24.4837H41.1137H41.113ZM40.3311 19.6208C40.3311 19.6208 41.0349 19.6472 41.061 20.9686C41.087 22.29 41.061 23.0038 41.061 23.0038H39.6019V20.9422C39.6019 20.9422 39.5759 19.6208 40.3317 19.6208H40.3311Z" fill="white" stroke="white" stroke-width="0.25" stroke-miterlimit="10"/>
<path d="M37.3646 15.7886H35.7754V28.2628H37.3646V15.7886Z" fill="white" stroke="white" stroke-width="0.25" stroke-miterlimit="10"/>
<path d="M43.2939 18.9597H44.8702V19.488C44.8702 19.488 45.7563 18.7477 46.6417 18.8798V20.5182H46.0948C46.0948 20.5182 44.9564 20.5704 44.9483 21.3641C44.9421 22.0251 44.9483 28.2616 44.9483 28.2616H43.2939V18.959V18.9597Z" fill="white" stroke="white" stroke-width="0.25" stroke-miterlimit="10"/>
<path d="M23.2989 18.9598C20.5891 19.0126 20.9537 21.8095 20.9537 21.8095H22.5864V20.5982C22.5864 20.5982 22.6992 19.6994 23.2728 19.6994C23.8464 19.6994 23.9152 20.5541 23.9152 20.5541V21.7875C23.8371 21.9283 23.2989 22.3246 23.2989 22.3246C23.0905 22.4655 22.8487 22.6529 22.2044 23.0912C21.4138 23.6283 21.0666 24.2013 21.0666 24.2013C20.5631 25.012 20.7063 26.9365 20.9798 27.4699C21.0908 27.6862 21.5006 28.3686 22.4649 28.3686C23.4291 28.3686 24.0281 27.7346 24.0281 27.7346V28.2629H25.5652V21.8145C25.5652 18.8019 23.2982 18.9604 23.2982 18.9604L23.2989 18.9598ZM23.9419 26.351C23.9419 26.351 23.8724 27.1359 23.2641 27.1441C22.6124 27.1529 22.4562 26.439 22.4562 26.439V24.2101C22.4562 24.2101 22.4735 23.9195 22.6385 23.7346C22.8034 23.5497 23.7069 23.0566 23.9412 22.8447V26.351H23.9419Z" fill="white" stroke="white" stroke-width="0.25" stroke-miterlimit="10"/>
<path d="M20.2876 16.6622C20.2089 16.288 19.9807 16.2239 19.8418 16.2239C19.3866 16.2239 19.3172 16.9044 19.3172 17.2C19.3172 17.6522 19.4629 18.0836 19.7977 18.0836C19.8449 18.0836 20.171 18.0836 20.313 17.61L20.7434 17.7453C20.7117 17.8805 20.6832 18.0163 20.5697 18.1761C20.4339 18.3685 20.2095 18.5572 19.8554 18.5572C19.4127 18.5572 18.8311 18.2509 18.8311 17.2207C18.8311 16.2767 19.3023 15.7918 19.8647 15.7918C20.5034 15.7849 20.6931 16.3975 20.7217 16.522L20.2882 16.661L20.2876 16.6622Z" fill="white" stroke="white" stroke-width="0.2"/>
<path d="M22.4979 17.5497C22.4979 18.2478 22.1092 18.5403 21.739 18.5403C21.4004 18.5403 20.9707 18.2875 20.9707 17.5535C20.9707 16.9158 21.2931 16.5774 21.6949 16.5774C22.3305 16.5774 22.4979 17.1082 22.4979 17.5503V17.5497ZM21.3973 17.5604C21.3973 17.6818 21.4066 18.1912 21.7328 18.1912C22.0589 18.1912 22.0713 17.6711 22.0713 17.507C22.0713 17.3428 22.0366 16.8944 21.7396 16.8944C21.4581 16.8944 21.3979 17.2541 21.3979 17.5604H21.3973Z" fill="white" stroke="white" stroke-width="0.2"/>
<path d="M24.1755 18.5082H23.7489V17.1831C23.7489 17.0799 23.7266 16.9655 23.5939 16.9655C23.4612 16.9655 23.3533 17.051 23.202 17.2076V18.5082H22.7754V16.6126H23.202V16.873C23.2845 16.7837 23.4742 16.5806 23.7867 16.5806C24.049 16.5806 24.1755 16.7516 24.1755 17.0648V18.5076V18.5082Z" fill="white" stroke="white" stroke-width="0.2"/>
<path d="M25.9418 15.8069V18.5075H25.5152V18.2899C25.4612 18.3541 25.3062 18.5396 25.0532 18.5396C24.6706 18.5396 24.4238 18.1088 24.4238 17.5635C24.4238 17.0182 24.6768 16.5798 25.0563 16.5798C25.1351 16.5798 25.3285 16.5943 25.5145 16.8295V15.8069H25.9411H25.9418ZM25.5183 17.1641C25.4643 17.093 25.3632 16.9786 25.2212 16.9786C24.905 16.9786 24.8895 17.4276 24.8895 17.5698C24.8895 17.7264 24.9304 18.1396 25.225 18.1396C25.3769 18.1396 25.4718 18.0182 25.5189 17.9578V17.1635L25.5183 17.1641Z" fill="white" stroke="white" stroke-width="0.2"/>
<path d="M26.6276 17.646C26.6438 18.0805 26.8583 18.1554 26.9817 18.1554C27.1969 18.1554 27.2787 17.9699 27.3172 17.8919L27.665 18.056C27.608 18.1736 27.4313 18.5403 26.9786 18.5403C26.552 18.5403 26.1787 18.1805 26.1787 17.539C26.1787 16.9617 26.498 16.5805 26.9631 16.5805C27.3296 16.5805 27.5671 16.812 27.6526 17.1044C27.7128 17.3145 27.7066 17.4818 27.6967 17.646H26.6276ZM27.3172 17.3573C27.301 16.9831 27.0865 16.9051 26.9662 16.9051C26.8242 16.9051 26.6469 17.0082 26.6276 17.3573H27.3172ZM27.5323 15.8252L26.9284 16.3736H26.609L27.0295 15.8252H27.5323Z" fill="white" stroke="white" stroke-width="0.2"/>
<path d="M29.1461 15.8464L30.1072 17.6313H30.1134V15.8464H30.5754V18.5081H30.1171L29.1244 16.6515H29.1182V18.5081H28.6562V15.8464H29.1461Z" fill="white" stroke="white" stroke-width="0.2"/>
<path d="M32.2418 18.0899C32.2418 18.1981 32.2715 18.3736 32.2988 18.4579H31.9094C31.8883 18.3736 31.8797 18.3164 31.8735 18.2723C31.7984 18.3465 31.6552 18.4881 31.4065 18.4881C31.1399 18.4881 30.8975 18.3094 30.8975 17.9918C30.8975 17.5226 31.3557 17.3208 31.8586 17.2767V17.2226C31.8586 17.0472 31.7476 16.939 31.5888 16.939C31.4121 16.939 31.2807 17.0403 31.1815 17.1887L30.9421 16.9629C31.1126 16.7333 31.3433 16.6321 31.595 16.6321C31.8704 16.6321 32.2418 16.7333 32.2418 17.2497V18.0899ZM31.8586 17.5333C31.6998 17.5673 31.2807 17.6579 31.2807 17.9553C31.2807 18.1069 31.3855 18.1811 31.4841 18.1811C31.6366 18.1811 31.7984 18.0359 31.8586 17.9818V17.5333Z" fill="white" stroke="white" stroke-width="0.2"/>
<path d="M33.6082 17.0792L33.5673 17.0509C33.4253 16.9509 33.3397 16.905 33.2288 16.905C33.0737 16.905 32.9758 17.0156 32.9758 17.1257C32.9758 17.293 33.1401 17.3326 33.3143 17.3754C33.5388 17.4289 33.9245 17.5182 33.9245 17.9314C33.9245 18.1949 33.7471 18.5408 33.2257 18.5408C32.8338 18.5408 32.644 18.3232 32.5361 18.1949L32.7953 17.9917C32.8902 18.0735 33.0229 18.188 33.2319 18.188C33.3552 18.188 33.4972 18.1383 33.4972 17.9993C33.4972 17.8534 33.3546 17.8031 33.1841 17.771C33.0006 17.7351 32.5771 17.6358 32.5771 17.1691C32.5771 16.8483 32.8493 16.5811 33.225 16.5811C33.532 16.5811 33.731 16.7452 33.8544 16.8484L33.6076 17.0798L33.6082 17.0792Z" fill="white" stroke="white" stroke-width="0.2"/>
<path d="M34.8161 15.9994V16.612H35.1131V16.9579H34.8161V17.9661C34.8161 18.1302 34.9519 18.1409 35.1131 18.1441V18.5359C34.8726 18.5466 34.7213 18.5428 34.601 18.4504C34.4521 18.3397 34.3889 18.1548 34.3889 17.9654V16.9573H34.1328V16.6114H34.3889V15.9988H34.8155L34.8161 15.9994Z" fill="white" stroke="white" stroke-width="0.2"/>
<path d="M21.5612 34.3579H20.9113L19.9074 32.895H19.8126V34.3579H19.2793V30.7837H19.9025C20.357 30.7837 20.61 30.8428 20.832 30.9925C21.0905 31.1692 21.2549 31.4963 21.2549 31.834C21.2549 32.3321 20.943 32.734 20.4729 32.8359L21.5612 34.3579ZM19.9818 32.4233C20.2199 32.4233 20.3942 32.3856 20.5151 32.3C20.6528 32.1982 20.7371 32.0265 20.7371 31.839C20.7371 31.668 20.6577 31.507 20.5256 31.4158C20.4041 31.3302 20.251 31.2925 20.0029 31.2925H19.8126V32.4233H19.9818Z" fill="white"/>
<path d="M22.6212 31.2925V32.1498H23.9897V32.6586H22.6212V33.8479H24.0318V34.3567H22.0879V30.7825H24.0318V31.2913H22.6212V31.2925Z" fill="white"/>
<path d="M25.288 33.4893L24.8918 34.3578H24.3213L26.0643 30.5591L27.7441 34.3578H27.1631L26.7935 33.4893H25.288ZM26.0538 31.7691L25.51 32.9798H26.5771L26.0538 31.7691Z" fill="white"/>
<path d="M28.1871 30.7837H28.9269C29.5346 30.7837 29.8886 30.8799 30.2315 31.1321C30.6699 31.4585 30.913 31.968 30.913 32.568C30.913 33.168 30.6699 33.6774 30.2049 34.0151C29.8508 34.2774 29.5445 34.3579 28.9157 34.3579H28.1865V30.7837H28.1871ZM28.9585 33.8485C29.3864 33.8485 29.6505 33.7787 29.8992 33.5912C30.2055 33.361 30.3797 32.9912 30.3797 32.573C30.3797 32.1548 30.1999 31.7692 29.8992 31.5441C29.6666 31.3673 29.3864 31.2919 28.9585 31.2919H28.721V33.8478H28.9585V33.8485Z" fill="white"/>
<path d="M32.1114 31.2925V32.1498H33.4793V32.6586H32.1114V33.8479H33.5221V34.3567H31.5781V30.7825H33.5221V31.2913H32.1114V31.2925Z" fill="white"/>
<path d="M36.5003 34.3579H35.8504L34.8465 32.895H34.7517V34.3579H34.2178V30.7837H34.8409C35.2955 30.7837 35.5491 30.8428 35.7711 30.9925C36.0296 31.1692 36.1933 31.4963 36.1933 31.834C36.1933 32.3321 35.8814 32.734 35.412 32.8359L36.5003 34.3579ZM34.9209 32.4233C35.159 32.4233 35.3333 32.3856 35.4548 32.3C35.5919 32.1982 35.6768 32.0265 35.6768 31.839C35.6768 31.668 35.5974 31.507 35.4654 31.4158C35.3438 31.3302 35.1907 31.2925 34.9426 31.2925H34.7523V32.4233H34.9209Z" fill="white"/>
<path d="M38.5906 31.5767C38.4269 31.3031 38.3054 31.2232 38.0623 31.2232C37.7715 31.2232 37.5501 31.4106 37.5501 31.6679C37.5501 31.7855 37.6028 31.8873 37.7188 31.9679C37.7857 32.0144 37.9743 32.1018 38.2843 32.2301C38.8548 32.471 39.1084 32.793 39.1084 33.2855C39.1084 33.9389 38.6278 34.427 37.978 34.427C37.5923 34.427 37.2649 34.2553 37.0534 33.9502C36.9375 33.7792 36.8897 33.6395 36.8525 33.3716L37.3914 33.2484C37.418 33.4628 37.4391 33.5484 37.4918 33.6395C37.5811 33.8112 37.782 33.9182 37.9991 33.9182C38.3265 33.9182 38.5751 33.666 38.5751 33.3232C38.5751 33.1201 38.4902 32.9641 38.332 32.8515C38.251 32.7978 38.052 32.7031 37.7349 32.5672C37.2432 32.3584 37.0113 32.0641 37.0113 31.6616C37.0113 31.1257 37.4708 30.7131 38.0679 30.7131C38.4902 30.7131 38.781 30.8955 39.0191 31.3131L38.5912 31.5754L38.5906 31.5767Z" fill="white"/>
<path d="M40.5862 30.8107L39.9364 32.1346L39.5879 31.9899L40.1267 30.6289L40.5862 30.8113V30.8107Z" fill="white"/>
<path d="M13.0041 37.3715C12.6712 37.0929 12.402 36.9803 12.048 36.9803C11.3293 36.9803 10.7588 37.5803 10.7588 38.3414C10.7588 39.1024 11.3293 39.6753 12.0529 39.6753C12.4014 39.6753 12.6606 39.5627 13.0041 39.2684V39.9168C12.6922 40.0992 12.3859 40.1847 12.048 40.1847C11.0391 40.1847 10.2256 39.3596 10.2256 38.347C10.2256 37.3344 11.0546 36.4722 12.0852 36.4722C12.4287 36.4722 12.6873 36.547 13.0041 36.7344V37.3722V37.3715Z" fill="white"/>
<path d="M15.7866 37.9402V36.5415H16.3199V40.1151H15.7866V38.4491H14.2706V40.1151H13.7373V36.5415H14.2706V37.9402H15.7866Z" fill="white"/>
<path d="M20.6713 38.3307C20.6713 39.3596 19.8422 40.1847 18.8117 40.1847C18.3044 40.1847 17.7817 39.9439 17.4326 39.5527C17.1368 39.2206 16.9893 38.803 16.9893 38.3149C16.9893 37.308 17.8295 36.4722 18.8383 36.4722C19.8472 36.4722 20.6713 37.313 20.6713 38.3313V38.3307ZM17.5231 38.32C17.5231 38.7219 17.6496 39.0382 17.9138 39.2948C18.1618 39.5363 18.4948 39.6753 18.8172 39.6753C19.557 39.6753 20.138 39.086 20.138 38.3307C20.138 37.5753 19.5675 36.9803 18.8334 36.9803C18.0992 36.9803 17.5231 37.5697 17.5231 38.32Z" fill="white"/>
<path d="M21.8692 40.1151H21.3359V36.5415H21.8692V40.1151Z" fill="white"/>
<path d="M25.3182 37.3715C24.9853 37.0929 24.7161 36.9803 24.3621 36.9803C23.6434 36.9803 23.0729 37.5803 23.0729 38.3414C23.0729 39.1024 23.6434 39.6753 24.367 39.6753C24.7155 39.6753 24.9741 39.5627 25.3176 39.2684V39.9168C25.0057 40.0992 24.6994 40.1847 24.3615 40.1847C23.3526 40.1847 22.5391 39.3596 22.5391 38.347C22.5391 37.3344 23.3687 36.4722 24.3987 36.4722C24.7422 36.4722 25.0008 36.547 25.3176 36.7344V37.3722L25.3182 37.3715Z" fill="white"/>
<path d="M26.5157 37.0502V37.9074H27.8836V38.4162H26.5157V39.6056H27.9264V40.1144H25.9824V36.5408H27.9264V37.0496H26.5157V37.0502Z" fill="white"/>
<path d="M30.5028 39.2472L30.1066 40.1152H29.5361L31.2792 36.3164L32.9589 40.1152H32.3779L32.0084 39.2472H30.5028ZM31.2686 37.5271L30.7248 38.7378H31.792L31.2686 37.5271Z" fill="white"/>
<path d="M34.2102 38.9309L35.1664 36.3699L36.0853 38.9309L37.0576 36.5409H37.6336L36.0593 40.3453L35.1564 37.8108L34.2108 40.3453L32.7158 36.5409H33.2919L34.2108 38.9309H34.2102Z" fill="white"/>
<path d="M38.3339 39.2472L37.9377 40.1152H37.3672L39.1102 36.3164L40.79 40.1152H40.209L39.8394 39.2472H38.3339ZM39.0997 37.5271L38.5559 38.7378H39.623L39.0997 37.5271Z" fill="white"/>
<path d="M43.5149 40.1151H42.8651L41.8612 38.6528H41.7663V40.1151H41.2324V36.5415H41.8556C42.3101 36.5415 42.5637 36.6006 42.7857 36.7503C43.0443 36.927 43.208 37.2541 43.208 37.5912C43.208 38.0899 42.8961 38.4912 42.4267 38.5931L43.5149 40.1151ZM41.9356 38.1805C42.1737 38.1805 42.3479 38.1434 42.4695 38.0572C42.6065 37.9553 42.6915 37.7836 42.6915 37.5968C42.6915 37.4251 42.6121 37.2641 42.48 37.1736C42.3585 37.088 42.2053 37.0503 41.9573 37.0503H41.7669V38.1805H41.9356Z" fill="white"/>
<path d="M44.0416 36.5415H44.7814C45.3891 36.5415 45.7425 36.6377 46.086 36.8899C46.5244 37.217 46.7675 37.7258 46.7675 38.3258C46.7675 38.9258 46.5244 39.4352 46.0594 39.7723C45.7053 40.0346 45.399 40.1151 44.7702 40.1151H44.041V36.5415H44.0416ZM44.813 39.6063C45.2409 39.6063 45.505 39.5365 45.7537 39.3491C46.06 39.1189 46.2342 38.7491 46.2342 38.3308C46.2342 37.9126 46.0544 37.527 45.7537 37.3019C45.5211 37.1251 45.2415 37.0503 44.813 37.0503H44.5755V39.6063H44.813Z" fill="white"/>
<path d="M48.9959 37.3346C48.8322 37.061 48.7106 36.9811 48.4676 36.9811C48.1768 36.9811 47.9554 37.1685 47.9554 37.4258C47.9554 37.544 48.0081 37.6453 48.1241 37.7258C48.191 37.7723 48.3795 37.8597 48.6896 37.988C49.26 38.2295 49.5136 38.5509 49.5136 39.0434C49.5136 39.6975 49.0331 40.1849 48.3832 40.1849C47.9976 40.1849 47.6702 40.0138 47.4587 39.7082C47.3428 39.5365 47.295 39.3975 47.2578 39.1289L47.7967 39.0056C47.8233 39.2201 47.8444 39.3056 47.8971 39.3968C47.9864 39.5679 48.1873 39.6755 48.4043 39.6755C48.7317 39.6755 48.9804 39.4239 48.9804 39.0811C48.9804 38.8773 48.8954 38.722 48.7373 38.6094C48.6563 38.5562 48.4572 38.4616 48.1402 38.3258C47.6485 38.117 47.4166 37.822 47.4166 37.4201C47.4166 36.8843 47.876 36.4717 48.4732 36.4717C48.8954 36.4717 49.1862 36.6541 49.4243 37.0717L48.9965 37.3346H48.9959Z" fill="white"/>
<path d="M23.4256 48.4868V49.4409H18.9902L21.287 46.6289C22.2078 45.4943 22.4453 45.0824 22.4453 44.6604C22.4453 44.0377 21.9498 43.556 21.3161 43.556C20.9397 43.556 20.5931 43.7264 20.3953 44.0176C20.2663 44.2088 20.2174 44.3793 20.1678 44.7509H19.1781C19.2476 44.1786 19.3362 43.8774 19.5644 43.5359C19.9408 42.9535 20.5448 42.6321 21.287 42.6321C22.4949 42.6321 23.4157 43.5157 23.4157 44.6604C23.4157 45.3837 23.1385 45.8956 22.0001 47.261L20.9707 48.4862H23.4262L23.4256 48.4868Z" fill="white"/>
<path d="M28.6038 43.6767C29.0099 44.3094 29.2176 45.1327 29.2176 46.0969C29.2176 47.061 29.0099 47.8742 28.6038 48.5069C28.1982 49.1396 27.5348 49.5516 26.8911 49.5516C26.2475 49.5516 25.5747 49.1497 25.1686 48.5069C24.7525 47.8547 24.5547 47.061 24.5547 46.0465C24.5547 44.0887 25.5549 42.6321 26.8911 42.6321C27.5348 42.6321 28.1982 43.034 28.6038 43.6767ZM25.9505 44.2088C25.6832 44.7208 25.5344 45.3837 25.5344 46.0566C25.5344 46.7899 25.6733 47.4226 25.9505 47.9648C26.178 48.3969 26.5048 48.6277 26.8911 48.6277C27.2774 48.6277 27.5943 48.3969 27.8219 47.9648C28.0891 47.4327 28.2379 46.7899 28.2379 46.0868C28.2379 45.3837 28.0891 44.7113 27.8219 44.2088C27.5837 43.7767 27.2669 43.5459 26.8812 43.5459C26.4955 43.5459 26.178 43.7767 25.9505 44.2088Z" fill="white"/>
<path d="M34.5741 48.4868V49.4409H30.1387L32.4354 46.6289C33.3562 45.4943 33.5943 45.0824 33.5943 44.6604C33.5943 44.0377 33.0995 43.556 32.4658 43.556C32.0894 43.556 31.7428 43.7264 31.545 44.0176C31.416 44.2088 31.367 44.3793 31.3174 44.7509H30.3272C30.3966 44.1786 30.4859 43.8774 30.7135 43.5359C31.0899 42.9535 31.6938 42.6321 32.436 42.6321C33.6439 42.6321 34.5648 43.5157 34.5648 44.6604C34.5648 45.3837 34.2876 45.8956 33.1491 47.261L32.1192 48.4862H34.5747L34.5741 48.4868Z" fill="white"/>
<path d="M40.1873 48.4868V49.4409H35.752L38.0487 46.6289C38.9695 45.4943 39.2076 45.0824 39.2076 44.6604C39.2076 44.0377 38.7128 43.556 38.0791 43.556C37.7027 43.556 37.3561 43.7264 37.1583 44.0176C37.0293 44.2088 36.9803 44.3793 36.9307 44.7509H35.9405C36.0099 44.1786 36.0992 43.8774 36.3268 43.5359C36.7031 42.9535 37.3071 42.6321 38.0493 42.6321C39.2572 42.6321 40.178 43.5157 40.178 44.6604C40.178 45.3837 39.9009 45.8956 38.7624 47.261L37.7325 48.4862H40.188L40.1873 48.4868Z" fill="white"/>
<path d="M1.95966 25.288L0.431176 24.3755L0.480782 24.1189L2.22877 23.8811L0.72013 22.9836L0.815001 22.488L3.06649 23.8736L3.00386 24.2031L1.3464 24.4327L2.79304 25.3031L2.73041 25.6327L0.141602 26.0088L0.236473 25.5132L1.95966 25.2893V25.288Z" fill="#EC1C24"/>
<path d="M3.50875 22.0347L3.3773 22.4944L1.05078 21.8089L1.18286 21.3491L3.50875 22.0347Z" fill="#EC1C24"/>
<path d="M1.4502 20.2498L1.56739 19.9404L3.67006 19.1567L2.14716 18.5636L2.31644 18.1165L4.62311 19.0146L4.50592 19.324L2.40325 20.1077L3.93297 20.7032L3.76369 21.1504L1.45082 20.2498H1.4502Z" fill="#EC1C24"/>
<path d="M2.71449 17.0867L2.86579 16.793L5.04224 16.2578L3.59623 15.4924L3.8145 15.0679L6.0046 16.227L5.8533 16.5213L3.67622 17.0566L5.12905 17.8251L4.91079 18.2496L2.71387 17.0867H2.71449Z" fill="#EC1C24"/>
<path d="M4.97904 13.9722L5.42922 14.2703L5.88559 13.5603L6.22911 13.7879L5.77336 14.498L6.32088 14.8603L6.79524 14.1225L7.13876 14.3502L6.40645 15.4892L4.37695 14.1464L5.10864 13.0081L5.45278 13.2351L4.97842 13.9728L4.97904 13.9722Z" fill="#EC1C24"/>
<path d="M8.64499 12.3271L8.28907 12.7919L7.12023 12.7108L7.0824 12.7598L7.85067 13.3642L7.56172 13.7422L5.64941 12.2378L6.07913 11.6768C6.24406 11.4617 6.42017 11.3259 6.59193 11.2888C6.78043 11.246 6.99931 11.302 7.16797 11.4353C7.34345 11.5731 7.45321 11.7718 7.45817 11.9567C7.46003 12.0749 7.44019 12.1661 7.37198 12.3032L8.64437 12.3265L8.64499 12.3271ZM6.90382 12.4422C7.08612 12.2039 7.0824 11.9919 6.8939 11.8429C6.70416 11.6938 6.51194 11.7422 6.32901 11.9806L6.24034 12.097L6.81949 12.5529L6.90444 12.4422H6.90382Z" fill="#EC1C24"/>
<path d="M10.406 8.65463C10.494 8.74708 10.561 8.85211 10.6069 8.96847C10.6521 9.08482 10.6738 9.20746 10.6726 9.33765C10.6701 9.46595 10.6453 9.58796 10.5957 9.70368C10.5461 9.81941 10.4766 9.92192 10.3861 10.0106C10.2937 10.1012 10.1902 10.1697 10.0748 10.2156C9.95888 10.2622 9.83797 10.2842 9.71209 10.2823C9.58374 10.2798 9.46344 10.2534 9.34997 10.2043C9.23649 10.1546 9.13604 10.0836 9.04737 9.99111C8.95932 9.89865 8.89297 9.79488 8.84709 9.6779C8.8012 9.56155 8.7795 9.43828 8.78136 9.30872C8.78322 9.18041 8.80926 9.0584 8.85825 8.94268C8.90662 8.82696 8.9773 8.72444 9.06783 8.63513C9.15899 8.5452 9.26192 8.47727 9.37663 8.43136C9.49134 8.38545 9.61288 8.36281 9.74185 8.36406C9.86959 8.36595 9.98988 8.39174 10.1034 8.44142C10.2168 8.49111 10.3173 8.56218 10.406 8.654V8.65463Z" fill="#EC1C24"/>
<path d="M11.3984 6.26041L11.8815 5.90066C12.1066 5.73274 12.2864 5.65789 12.4439 5.66418C12.6144 5.66921 12.7936 5.77362 12.912 5.93651C12.9895 6.04343 13.0354 6.16859 13.0429 6.27299C13.0429 6.34154 13.0305 6.39249 12.9889 6.49689C13.1421 6.42833 13.2246 6.41198 13.3337 6.43148C13.4862 6.45538 13.64 6.55538 13.7448 6.70066C13.8589 6.85789 13.9048 7.05223 13.8663 7.23588C13.8279 7.42456 13.707 7.58808 13.4906 7.74972L12.8327 8.24028L11.3991 6.26167L11.3984 6.26041ZM12.4842 6.72079C12.6807 6.57488 12.7173 6.4145 12.5927 6.2428C12.4699 6.07362 12.3087 6.06167 12.1183 6.20381L12.0042 6.28871L12.3763 6.80192L12.4842 6.72079ZM13.1501 7.52142C13.4075 7.32959 13.4658 7.14909 13.3324 6.96544C13.2636 6.87047 13.165 6.82079 13.0596 6.83085C12.9598 6.83651 12.8903 6.87047 12.7322 6.98871L12.589 7.09563L12.9864 7.64406L13.1501 7.52205V7.52142Z" fill="#EC1C24"/>
<path d="M14.1535 4.83574L14.4344 5.30052L15.1468 4.85776L15.3614 5.21247L14.6489 5.65524L14.9906 6.22065L15.7309 5.76027L15.9455 6.11562L14.8027 6.82568L13.5371 4.73008L14.6799 4.02002L14.8951 4.37537L14.1547 4.83511L14.1535 4.83574Z" fill="#EC1C24"/>
<path d="M16.8707 3.48563C16.6934 3.41519 16.5681 3.41707 16.4323 3.48689C16.2605 3.57494 16.1818 3.75104 16.2481 3.88563C16.3071 4.00387 16.4131 4.02839 16.7132 3.99506C16.9972 3.9611 17.1138 3.95921 17.2539 3.99506C17.4337 4.03909 17.577 4.16361 17.6737 4.35795C17.8876 4.78877 17.7276 5.23657 17.2806 5.46487C16.9662 5.62525 16.6673 5.6133 16.3312 5.42651L16.4714 5.02148C16.6617 5.15921 16.8763 5.18123 17.0704 5.08185C17.2644 4.98248 17.3407 4.78311 17.2508 4.60261C17.2049 4.51078 17.1237 4.45292 17.0115 4.44034C16.9563 4.43531 16.8521 4.43909 16.6574 4.46424C16.1967 4.51896 15.9759 4.43406 15.8321 4.14412C15.6492 3.77556 15.8005 3.36047 16.1892 3.16173C16.4261 3.04097 16.6834 3.01204 16.9451 3.0806L16.8701 3.48626L16.8707 3.48563Z" fill="#EC1C24"/>
<path d="M19.0079 4.59189L18.2501 2.70195L17.7491 2.90824L17.5947 2.5227L19.0376 1.92773L19.192 2.31327L18.6879 2.52145L19.4456 4.41138L19.0085 4.59189H19.0079Z" fill="#EC1C24"/>
<path d="M22.2568 3.45542L21.8029 3.58624L21.1406 1.22335L21.5945 1.09253L22.2568 3.45479V3.45542Z" fill="#EC1C24"/>
<path d="M22.6523 0.741462L22.9723 0.67794L24.742 2.06599L24.4282 0.444607L24.8908 0.352783L25.3658 2.80813L25.0452 2.87228L23.2755 1.48423L23.5905 3.11316L23.1279 3.20561L22.6523 0.743349V0.741462Z" fill="#EC1C24"/>
<path d="M26.5412 2.62697L26.3409 0.597407L25.8026 0.652124L25.7617 0.238287L27.3113 0.0810547L27.3522 0.49552L26.8103 0.550237L27.0099 2.5798L26.5405 2.6276L26.5412 2.62697Z" fill="#EC1C24"/>
<path d="M28.6377 0.437736L28.6507 0.98239L29.486 0.961635L29.4965 1.37799L28.6613 1.39874L28.6774 2.06164L29.5449 2.04025L29.5548 2.45597L28.2154 2.48994L28.1553 0.0333333L29.4953 0L29.5058 0.416352L28.6383 0.437736H28.6377Z" fill="#EC1C24"/>
<path d="M32.1289 2.57663L31.5485 2.54141L30.9545 1.51563L30.8925 1.51185L30.8336 2.49739L30.3623 2.46908L30.5074 0.015625L31.2068 0.0583923C31.4753 0.0747445 31.6855 0.146443 31.8133 0.268455C31.9547 0.402417 32.0328 0.618141 32.0204 0.835122C32.0067 1.05965 31.9075 1.26405 31.7593 1.37286C31.6645 1.44078 31.5783 1.47663 31.4282 1.49676L32.1289 2.576V2.57663ZM31.05 1.18229C31.3476 1.20053 31.5187 1.07789 31.533 0.835122C31.5473 0.592355 31.3991 0.457763 31.1021 0.440153L30.957 0.430719L30.9129 1.17412L31.05 1.18229Z" fill="#EC1C24"/>
<path d="M33.1903 0.164691L33.5128 0.218151L34.6965 2.14645L34.9594 0.513748L35.4263 0.591107L35.0282 3.06343L34.7052 3.00997L33.5215 1.08167L33.2573 2.7213L32.791 2.64394L33.191 0.164062L33.1903 0.164691Z" fill="#EC1C24"/>
<path d="M36.4736 2.84347L36.1276 3.28435L35.6445 3.1485L37.3162 1.01831L37.6592 1.11454L37.9766 3.8051L37.4899 3.668L37.4279 3.11202L36.473 2.84284L36.4736 2.84347ZM37.2945 1.7573L36.7222 2.51265L37.3869 2.70007L37.2945 1.7573Z" fill="#EC1C24"/>
<path d="M38.7178 4.09049L39.4141 2.17792L38.9069 1.98798L39.0495 1.59741L40.5098 2.14395L40.3678 2.53452L39.8575 2.34332L39.1611 4.2559L38.7184 4.09049H38.7178Z" fill="#EC1C24"/>
<path d="M40.7261 4.91315L40.2939 4.72007L41.2706 2.4729L41.7028 2.66598L40.7261 4.91252V4.91315Z" fill="#EC1C24"/>
<path d="M44.2972 5.41017C43.9536 6.04602 43.1903 6.25609 42.5442 5.89697C41.9074 5.54351 41.6873 4.77873 42.0364 4.13344C42.3675 3.52024 43.1451 3.30577 43.7757 3.65609C44.4094 4.00766 44.6388 4.77747 44.2972 5.4108V5.41017ZM42.4593 4.37621C42.2342 4.79256 42.37 5.30011 42.7643 5.51961C43.1531 5.73533 43.6504 5.57998 43.8724 5.16992C44.0938 4.75986 43.9561 4.25546 43.5617 4.03596C43.1761 3.82212 42.6757 3.97621 42.4593 4.37621Z" fill="#EC1C24"/>
<path d="M45.794 4.8622L46.0594 5.05465L46.2789 7.31252L47.2264 5.96786L47.6102 6.24585L46.176 8.28233L45.9106 8.08987L45.6911 5.83201L44.7399 7.18233L44.3555 6.90371L45.794 4.86157V4.8622Z" fill="#EC1C24"/>
<path d="M47.5815 8.74335L47.0774 8.98298L46.7041 8.64398L49.1348 7.48486L49.3996 7.72574L48.5085 10.2823L48.1321 9.94084L48.32 9.41379L47.5815 8.74335ZM48.7925 8.13769L47.9486 8.55845L48.4632 9.02511L48.7925 8.13769Z" fill="#EC1C24"/>
<path d="M49.5617 10.8139L50.0776 11.358L49.7818 11.6467L48.9385 10.7573L50.684 9.0542L51.0114 9.39948L49.5617 10.8139Z" fill="#EC1C24"/>
<path d="M51.7044 13.2365L51.1618 13.3598L50.8691 12.9472L53.4896 12.3491L53.6967 12.6422L52.2817 14.9422L51.9871 14.5265L52.2823 14.0535L51.705 13.2372L51.7044 13.2365ZM53.0152 12.9114L52.1025 13.1365L52.5049 13.7051L53.0152 12.912V12.9114Z" fill="#EC1C24"/>
<path d="M52.8553 15.9233L52.6104 15.5138L54.6808 14.2402L54.9251 14.6497L52.8553 15.9233Z" fill="#EC1C24"/>
<path d="M54.1221 18.3171L53.8574 17.7926L54.4247 16.7523L54.3968 16.6963L53.5306 17.1473L53.3154 16.7215L55.4708 15.6001L55.7908 16.2328C55.9135 16.4756 55.9594 16.6957 55.9204 16.8693C55.8782 17.0605 55.7362 17.2385 55.5452 17.3378C55.3486 17.4404 55.1242 17.458 54.9561 17.3837C54.8507 17.3353 54.7763 17.2787 54.6827 17.1573L54.1228 18.3183L54.1221 18.3171ZM54.7565 16.6661C54.8923 16.9347 55.0839 17.0221 55.2972 16.9108C55.5099 16.8001 55.5483 16.602 55.4131 16.3328L55.3462 16.202L54.6939 16.5416L54.7565 16.6661Z" fill="#EC1C24"/>
<path d="M54.567 19.3825L54.3896 18.9391L56.6331 18.0139L56.8991 18.6787C57.0181 18.9755 57.0355 19.1554 56.9685 19.3498C56.8966 19.5504 56.7354 19.7164 56.5196 19.8051C56.3243 19.8856 56.1153 19.8925 55.9448 19.8278C55.7588 19.7535 55.6205 19.5957 55.512 19.3265L55.3973 19.0397L54.5664 19.3825H54.567ZM55.8505 19.0636C55.9615 19.3397 56.1252 19.4353 56.3404 19.3466C56.4483 19.302 56.5283 19.2177 56.5531 19.124C56.5754 19.0347 56.5574 18.9309 56.4923 18.7667L56.4303 18.6133L55.778 18.8825L55.8499 19.063L55.8505 19.0636Z" fill="#EC1C24"/>
<path d="M57.0797 23.1427C56.3939 23.3465 55.7081 22.9477 55.501 22.2301C55.2982 21.5238 55.6746 20.8257 56.371 20.6194C57.0326 20.4232 57.7314 20.8295 57.9336 21.5282C58.1357 22.2314 57.7618 22.9402 57.0797 23.1427ZM56.5006 21.0943C56.051 21.2276 55.7937 21.6836 55.9196 22.1213C56.0436 22.5521 56.5043 22.7993 56.9464 22.6679C57.3885 22.5364 57.6427 22.0817 57.5169 21.6433C57.3935 21.2163 56.9321 20.966 56.5006 21.0936V21.0943Z" fill="#EC1C24"/>
<path d="M56.3888 26.0208L56.2852 25.4416L57.1242 24.6126L57.113 24.551L56.1556 24.7277L56.0713 24.2573L58.4517 23.8164L58.5776 24.5151C58.626 24.7831 58.6074 25.007 58.5212 25.1617C58.4263 25.3328 58.2397 25.4611 58.0289 25.4994C57.8112 25.5397 57.5917 25.4906 57.4528 25.3705C57.3654 25.2931 57.3102 25.217 57.2556 25.0743L56.3894 26.0202L56.3888 26.0208ZM57.4658 24.6284C57.5192 24.9252 57.6773 25.0642 57.9123 25.0208C58.1479 24.9774 58.2409 24.7988 58.1882 24.5019L58.1616 24.3573L57.441 24.4912L57.4658 24.6284Z" fill="#EC1C24"/>
<path d="M56.4893 26.9762L58.4909 26.7731L58.4369 26.2272L58.8455 26.1863L58.9999 27.758L58.5913 27.7995L58.5374 27.2498L56.5364 27.4529L56.4893 26.9762Z" fill="#EC1C24"/>
<path d="M57.8493 31.8812C57.7221 31.8768 57.6031 31.8492 57.4902 31.7976C57.378 31.746 57.2776 31.6724 57.1901 31.5787C57.1039 31.485 57.0388 31.3794 56.9942 31.2617C56.9502 31.1441 56.9303 31.0209 56.934 30.8926C56.9384 30.763 56.9657 30.6404 57.0171 30.5259C57.0686 30.4114 57.1405 30.3095 57.2323 30.2221C57.3265 30.1334 57.4307 30.0674 57.546 30.0227C57.6614 29.9781 57.7829 29.9586 57.9094 29.9624C58.0359 29.9661 58.1556 29.9944 58.2684 30.046C58.3813 30.0976 58.4811 30.1712 58.5679 30.2649C58.6541 30.3586 58.7198 30.4643 58.7639 30.5819C58.8079 30.7001 58.8277 30.8227 58.824 30.9511C58.8203 31.08 58.7924 31.2014 58.7415 31.3152C58.6907 31.429 58.6182 31.5316 58.5258 31.6221C58.4321 31.7102 58.328 31.7768 58.2126 31.8209C58.0967 31.8649 57.9751 31.885 57.8493 31.8812Z" fill="#EC1C24"/>
<path d="M57.0334 34.7862L58.5582 35.7026L58.5086 35.9592L56.7606 36.1919L58.2655 37.0938L58.1694 37.5887L55.9229 36.1975L55.9867 35.8686L57.6442 35.6447L56.2 34.7705L56.2645 34.4416L58.8527 34.073L58.7566 34.568L57.0334 34.7868V34.7862Z" fill="#EC1C24"/>
<path d="M55.4766 38.0358L55.6099 37.5767L57.9339 38.2691L57.8006 38.7289L55.4766 38.0364V38.0358Z" fill="#EC1C24"/>
<path d="M57.5315 39.8282L57.4137 40.1376L55.3085 40.915L56.8296 41.5131L56.659 41.9596L54.3555 41.054L54.4739 40.7452L56.5784 39.9678L55.0506 39.3672L55.2211 38.9207L57.5315 39.8288V39.8282Z" fill="#EC1C24"/>
<path d="M56.2514 42.9957L56.0995 43.2894L53.923 43.8183L55.3659 44.5869L55.1471 45.0108L52.9619 43.8466L53.1138 43.5535L55.2903 43.0246L53.8406 42.2523L54.0601 41.8284L56.2514 42.9957Z" fill="#EC1C24"/>
<path d="M53.984 46.0957L53.5345 45.7963L53.0762 46.5045L52.7333 46.2762L53.1916 45.568L52.6447 45.2045L52.1691 45.9403L51.8262 45.712L52.561 44.5762L54.5849 45.9227L53.8507 47.0592L53.5072 46.8309L53.9834 46.0957H53.984Z" fill="#EC1C24"/>
<path d="M50.3131 47.734L50.6703 47.2699L51.8397 47.3548L51.8776 47.3057L51.1105 46.6982L51.4007 46.3208L53.3106 47.8321L52.8784 48.3925C52.7134 48.607 52.5355 48.7428 52.3637 48.7793C52.1746 48.8214 51.9563 48.7648 51.7877 48.6309C51.6128 48.4925 51.5037 48.2938 51.4987 48.1082C51.4975 47.9906 51.5173 47.8988 51.5855 47.7617L50.3125 47.7346L50.3131 47.734ZM52.0561 47.6239C51.8726 47.8617 51.8751 48.0743 52.0636 48.2239C52.2533 48.3736 52.4456 48.3258 52.6297 48.0875L52.719 47.9711L52.1411 47.5133L52.0561 47.6233V47.6239Z" fill="#EC1C24"/>
<path d="M48.5413 51.402C48.4526 51.3089 48.3856 51.2045 48.341 51.0875C48.2957 50.9705 48.2746 50.8473 48.2765 50.7177C48.2783 50.5894 48.3044 50.4674 48.354 50.3517C48.4036 50.2366 48.4737 50.1334 48.5648 50.0448C48.6572 49.9548 48.7608 49.8863 48.8767 49.841C48.992 49.7951 49.1136 49.7731 49.2395 49.7756C49.3678 49.7787 49.4881 49.8051 49.6016 49.8548C49.7144 49.9051 49.8149 49.9756 49.9036 50.0687C49.991 50.1611 50.0573 50.2649 50.1032 50.3819C50.1485 50.4989 50.1696 50.6215 50.1677 50.7511C50.1652 50.8794 50.1392 51.0014 50.0896 51.1171C50.04 51.2328 49.9699 51.3347 49.8788 51.424C49.787 51.5133 49.684 51.5806 49.5693 51.6265C49.4546 51.6724 49.3325 51.6944 49.2041 51.6932C49.0764 51.6907 48.9561 51.6643 48.8426 51.6146C48.7298 51.5643 48.6293 51.4932 48.5419 51.4014L48.5413 51.402Z" fill="#EC1C24"/>
<path d="M47.5443 53.7937L47.0606 54.1522C46.8349 54.3195 46.6545 54.3937 46.497 54.3874C46.3264 54.3817 46.1472 54.2767 46.0288 54.1132C45.9519 54.0062 45.906 53.8805 45.8992 53.7767C45.8992 53.7081 45.9122 53.6578 45.9538 53.554C45.8006 53.622 45.7169 53.6377 45.609 53.6182C45.4565 53.5943 45.3033 53.493 45.1985 53.3478C45.0844 53.1899 45.0392 52.9962 45.0782 52.8125C45.1173 52.6239 45.2388 52.461 45.4552 52.3006L46.1156 51.8113L47.5443 53.7949V53.7937ZM45.795 52.5264C45.5371 52.7176 45.4788 52.8981 45.6115 53.0823C45.6797 53.1773 45.7789 53.2276 45.8843 53.2176C45.9842 53.2125 46.0542 53.1786 46.2123 53.061L46.3562 52.9547L45.96 52.405L45.7956 52.5264H45.795ZM46.4598 53.3295C46.2632 53.4748 46.226 53.6352 46.3494 53.8075C46.4721 53.9773 46.6334 53.9893 46.8244 53.8484L46.9384 53.7635L46.5676 53.249L46.4591 53.3295H46.4598Z" fill="#EC1C24"/>
<path d="M44.7845 55.2075L44.5048 54.7421L43.7917 55.1823L43.5784 54.8264L44.2915 54.3861L43.9523 53.8201L43.2114 54.2773L42.998 53.9226L44.1421 53.2163L45.4008 55.3132L44.2568 56.0195L44.0435 55.6635L44.7845 55.2062V55.2075Z" fill="#EC1C24"/>
<path d="M42.0656 56.5529C42.243 56.624 42.3676 56.6221 42.504 56.5529C42.6764 56.4655 42.7558 56.2894 42.6888 56.1541C42.6299 56.0353 42.5251 56.0108 42.2237 56.0435C41.9397 56.0762 41.8226 56.078 41.6837 56.0416C41.5032 55.9969 41.36 55.8724 41.2639 55.6774C41.0512 55.246 41.2118 54.7975 41.6601 54.5705C41.9751 54.4108 42.274 54.424 42.61 54.6114L42.4687 55.017C42.2783 54.8787 42.0638 54.8554 41.8691 54.9548C41.6737 55.0535 41.5975 55.2529 41.6874 55.434C41.7326 55.5265 41.8145 55.5837 41.9261 55.5969C41.9813 55.6019 42.0855 55.5988 42.2802 55.5736C42.7415 55.5208 42.9629 55.6063 43.1061 55.8969C43.2878 56.2655 43.1352 56.6806 42.7458 56.8787C42.5084 56.9988 42.2504 57.0271 41.9894 56.9579L42.0656 56.5523V56.5529Z" fill="#EC1C24"/>
<path d="M39.9323 55.4397L40.6857 57.3296L41.1873 57.124L41.3405 57.5095L39.8975 58.1013L39.7444 57.7158L40.2485 57.5082L39.4951 55.6189L39.9323 55.4397Z" fill="#EC1C24"/>
<path d="M36.6709 56.5685L37.1254 56.439L37.7796 58.8037L37.3251 58.9333L36.6709 56.5685Z" fill="#EC1C24"/>
<path d="M36.2674 59.2824L35.9462 59.3453L34.1815 57.9516L34.4897 59.5742L34.0271 59.6648L33.5596 57.2076L33.8802 57.1447L35.6455 58.5384L35.3355 56.9082L35.7987 56.8176L36.2674 59.2824Z" fill="#EC1C24"/>
<path d="M32.3839 57.3835L32.5774 59.415L33.1162 59.3622L33.1559 59.7766L31.6051 59.9288L31.5654 59.5144L32.108 59.4609L31.9139 57.4301L32.3839 57.3835Z" fill="#EC1C24"/>
<path d="M30.2804 59.566L30.2686 59.0214L29.434 59.039L29.4253 58.6226L30.2599 58.605L30.2463 57.9421L29.3788 57.9604L29.3701 57.544L30.7095 57.5164L30.7597 59.9723L29.4203 60.0006L29.4117 59.5843L30.2791 59.566H30.2804Z" fill="#EC1C24"/>
<path d="M26.7988 57.4177L27.3786 57.4548L27.9695 58.4812L28.0309 58.485L28.0923 57.5001L28.5636 57.5297L28.4116 59.9806L27.7128 59.936C27.4443 59.919 27.2347 59.8467 27.107 59.724C26.9662 59.5894 26.8887 59.3743 26.9024 59.158C26.916 58.9334 27.0159 58.7297 27.1647 58.6215C27.2595 58.5536 27.3457 58.5184 27.4958 58.4989L26.7988 57.4177ZM27.8728 58.814C27.5758 58.7951 27.4046 58.9171 27.3891 59.1599C27.3743 59.402 27.5225 59.5372 27.8195 59.5561L27.9639 59.5655L28.0098 58.8234L27.8722 58.8146L27.8728 58.814Z" fill="#EC1C24"/>
<path d="M25.7387 59.8263L25.4163 59.7716L24.2394 57.8408L23.9715 59.4716L23.5059 59.393L23.9114 56.9238L24.2338 56.9779L25.4107 58.9087L25.6798 57.2704L26.1455 57.349L25.7387 59.8263Z" fill="#EC1C24"/>
<path d="M22.4525 57.1384L22.8003 56.6988L23.2821 56.8359L21.6048 58.9604L21.2625 58.8629L20.9531 56.1724L21.4386 56.3107L21.4994 56.8673L22.4525 57.139V57.1384ZM21.6284 58.222L22.2026 57.4686L21.5391 57.2793L21.6284 58.222Z" fill="#EC1C24"/>
<path d="M20.212 55.8837L19.5101 57.7944L20.0167 57.9862L19.8735 58.3762L18.415 57.8252L18.5583 57.4353L19.068 57.6277L19.7699 55.717L20.212 55.8843V55.8837Z" fill="#EC1C24"/>
<path d="M18.2159 55.0586L18.6468 55.2523L17.6634 57.497L17.2324 57.3026L18.2159 55.0586Z" fill="#EC1C24"/>
<path d="M14.6448 54.5523C14.9902 53.9171 15.7541 53.7095 16.3996 54.0705C17.0352 54.4265 17.2535 55.1919 16.9025 55.8366C16.5695 56.4491 15.7907 56.6611 15.1607 56.3089C14.5282 55.9548 14.3007 55.1837 14.6442 54.5516L14.6448 54.5523ZM16.4802 55.5919C16.7066 55.1762 16.5726 54.668 16.1783 54.4472C15.7901 54.2303 15.2916 54.3843 15.0689 54.7938C14.8457 55.2032 14.9821 55.7083 15.3759 55.929C15.761 56.1441 16.262 55.9919 16.4796 55.5919H16.4802Z" fill="#EC1C24"/>
<path d="M13.1356 55.0913L12.8702 54.8976L12.6569 52.6372L11.7051 53.98L11.3213 53.7001L12.763 51.6667L13.0284 51.8598L13.2423 54.1208L14.1978 52.7718L14.5816 53.051L13.1362 55.0906L13.1356 55.0913Z" fill="#EC1C24"/>
<path d="M11.368 51.2087L11.8728 50.971L12.2448 51.3112L9.81165 52.4634L9.54688 52.2219L10.4447 49.6685L10.8199 50.0106L10.6314 50.537L11.368 51.2093V51.2087ZM10.1558 51.8112L11.0003 51.393L10.4881 50.9257L10.1564 51.8119L10.1558 51.8112Z" fill="#EC1C24"/>
<path d="M9.38785 49.1238L8.87195 48.5798L9.16773 48.2917L10.011 49.1811L8.2649 50.8842L7.9375 50.5389L9.38723 49.1245L9.38785 49.1238Z" fill="#EC1C24"/>
<path d="M7.25161 46.6957L7.7948 46.5737L8.08561 46.9875L5.46332 47.5787L5.25684 47.285L6.67866 44.9888L6.97196 45.4058L6.67556 45.8781L7.25161 46.6969V46.6957ZM5.9383 47.0171L6.85229 46.7944L6.4511 46.2252L5.9383 47.0177V47.0171Z" fill="#EC1C24"/>
<path d="M6.11578 44.0145L6.35947 44.4246L4.2847 45.6932L4.04102 45.2831L6.11578 44.0139V44.0145Z" fill="#EC1C24"/>
<path d="M4.85538 41.6194L5.11891 42.1439L4.54907 43.1823L4.57697 43.2383L5.44383 42.7905L5.65776 43.2169L3.50052 44.3313L3.18242 43.698C3.06089 43.4552 3.01562 43.2351 3.05469 43.0615C3.09747 42.8703 3.24009 42.693 3.43107 42.5949C3.62826 42.493 3.8521 42.4766 4.02014 42.5508C4.12618 42.5999 4.19997 42.6565 4.29298 42.7779L4.856 41.62L4.85538 41.6194ZM4.21609 43.2672C4.08091 42.998 3.89055 42.9106 3.67724 43.0213C3.46332 43.1313 3.42425 43.3294 3.55943 43.598L3.62516 43.7294L4.27871 43.3923L4.21609 43.2672Z" fill="#EC1C24"/>
<path d="M4.41221 40.5516L4.58894 40.995L2.34303 41.9133L2.07826 41.2479C1.96044 40.9504 1.9437 40.7705 2.01129 40.5761C2.08384 40.3755 2.24506 40.2107 2.46084 40.1227C2.65617 40.0428 2.86513 40.0372 3.03565 40.1019C3.22167 40.1768 3.35933 40.3353 3.46598 40.6045L3.58008 40.8912L4.41159 40.551L4.41221 40.5516ZM3.12866 40.8661C3.01891 40.5894 2.85521 40.4931 2.64004 40.5818C2.53215 40.6258 2.45216 40.7101 2.42674 40.8038C2.40318 40.8931 2.42116 40.9969 2.48627 41.1611L2.54765 41.3145L3.20059 41.0478L3.12866 40.8667V40.8661Z" fill="#EC1C24"/>
<path d="M1.90765 36.7743C2.59407 36.573 3.27863 36.9737 3.48326 37.6913C3.68416 38.3982 3.3053 39.0951 2.60833 39.2995C1.94609 39.4938 1.24851 39.085 1.04885 38.385C0.848564 37.6812 1.22433 36.9737 1.90765 36.7737V36.7743ZM2.47998 38.824C2.93015 38.6925 3.18934 38.2372 3.06409 37.7988C2.94131 37.3674 2.48184 37.119 2.03911 37.2491C1.59637 37.3787 1.34028 37.8328 1.46554 38.2712C1.58707 38.6988 2.04841 38.951 2.47998 38.824Z" fill="#EC1C24"/>
<path d="M2.60718 33.8975L2.7095 34.4774L1.86744 35.3032L1.8786 35.3648L2.83599 35.1906L2.91908 35.6617L0.536139 36.095L0.412744 35.3956C0.365619 35.1277 0.384841 34.9032 0.471651 34.7491C0.567143 34.5786 0.754405 34.4503 0.96523 34.4126C1.18288 34.373 1.40176 34.4227 1.54128 34.5428C1.62871 34.6208 1.68265 34.6969 1.73784 34.8396L2.60718 33.8962V33.8975ZM1.52516 35.2874C1.47307 34.9906 1.31557 34.851 1.07932 34.8937C0.843695 34.9371 0.750064 35.1145 0.802771 35.412L0.828194 35.5566L1.54996 35.4252L1.52516 35.2874Z" fill="#EC1C24"/>
<path d="M2.50758 32.9434L0.50722 33.1427L0.559926 33.6886L0.151918 33.7289L0 32.1572L0.408008 32.1169L0.461335 32.6666L2.46231 32.4673L2.5082 32.9434H2.50758Z" fill="#EC1C24"/>
<path d="M1.16177 28.0441C1.28889 28.0485 1.40856 28.0768 1.52079 28.129C1.63303 28.1805 1.73286 28.2541 1.82091 28.3491C1.9071 28.4428 1.97221 28.5485 2.01561 28.6667C2.05902 28.7849 2.07886 28.9076 2.07452 29.0359C2.07018 29.1661 2.04228 29.2881 1.99081 29.4025C1.93872 29.517 1.86679 29.6183 1.7744 29.7057C1.68077 29.7937 1.57536 29.8598 1.46003 29.9044C1.34469 29.9485 1.22316 29.968 1.09604 29.9635C0.970168 29.9591 0.850494 29.9308 0.738261 29.8786C0.626027 29.8264 0.525575 29.7535 0.438765 29.6585C0.352575 29.5648 0.288087 29.4591 0.244062 29.3409C0.200657 29.2233 0.180815 29.1 0.185155 28.9717C0.189496 28.8428 0.217399 28.7214 0.268865 28.6076C0.319711 28.4937 0.39226 28.3918 0.485891 28.3019C0.579522 28.2139 0.683694 28.1478 0.799648 28.1032C0.915602 28.0598 1.03652 28.0396 1.16301 28.0441H1.16177Z" fill="#EC1C24"/>
</g>
<defs>
<clipPath id="clip0_7459_71566">
<rect width="59" height="60" fill="white"/>
</clipPath>
</defs>
</svg>
