<svg width="12" height="14" viewBox="0 0 12 14" fill="none" xmlns="http://www.w3.org/2000/svg">
<path d="M5.99688 0C3.0768 0 0.701172 2.37567 0.701172 5.29571C0.701172 6.50016 1.5314 8.26148 3.16873 10.5307C4.35247 12.1713 5.51711 13.4675 5.56609 13.5219L5.99692 14L6.42775 13.5219C6.47673 13.4676 7.64136 12.1713 8.8251 10.5307C10.4624 8.26148 11.2927 6.5002 11.2927 5.29571C11.2926 2.37567 8.91696 0 5.99688 0ZM5.99688 12.2536C4.53811 10.5483 1.86098 7.05494 1.86098 5.29571C1.86098 3.01518 3.71632 1.1598 5.99688 1.1598C8.27744 1.1598 10.1328 3.01518 10.1328 5.29571C10.1328 7.05494 7.45564 10.5483 5.99688 12.2536Z" fill="#171C27"/>
<path d="M5.99688 7.217C7.05796 7.217 7.91813 6.35682 7.91813 5.29574C7.91813 4.23466 7.05796 3.37449 5.99688 3.37449C4.9358 3.37449 4.07562 4.23466 4.07562 5.29574C4.07562 6.35682 4.9358 7.217 5.99688 7.217Z" fill="#171C27"/>
</svg>
