<svg width="20" height="22" viewBox="0 0 20 22" fill="none" xmlns="http://www.w3.org/2000/svg">
<path d="M16.6077 15.0338C16.0881 15.0339 15.5755 15.1567 15.1095 15.3928C14.6435 15.6288 14.2366 15.9718 13.9203 16.3951L6.60353 12.1308C6.84938 11.3983 6.84938 10.6023 6.60353 9.86979L13.9203 5.60543C14.431 6.28587 15.1688 6.74832 15.9915 6.90377C16.8143 7.05923 17.6641 6.89672 18.3772 6.44752C19.0903 5.99831 19.6165 5.29415 19.8544 4.47052C20.0923 3.6469 20.0252 2.76201 19.666 1.98614C19.3068 1.21026 18.6809 0.598215 17.9086 0.267772C17.1364 -0.0626697 16.2724 -0.0881602 15.483 0.196206C14.6935 0.480572 14.0344 1.0547 13.6324 1.80812C13.2304 2.56154 13.1139 3.44101 13.3054 4.2773L5.86397 8.61436C5.39832 8.10568 4.79456 7.75241 4.13102 7.60038C3.46747 7.44835 2.77475 7.50456 2.14269 7.76173C1.51064 8.0189 0.968415 8.46516 0.586348 9.04263C0.204281 9.6201 0 10.3021 0 11.0003C0 11.6984 0.204281 12.3805 0.586348 12.9579C0.968415 13.5354 1.51064 13.9817 2.14269 14.2388C2.77475 14.496 3.46747 14.5522 4.13102 14.4002C4.79456 14.2482 5.39832 13.8949 5.86397 13.3862L13.3054 17.7233C13.145 18.4273 13.2019 19.1652 13.4683 19.8345C13.7346 20.5038 14.1972 21.0714 14.7919 21.4586C15.3865 21.8457 16.0838 22.0333 16.7869 21.9952C17.49 21.957 18.1642 21.6952 18.7158 21.2459C19.2675 20.7966 19.6693 20.1821 19.8656 19.4877C20.0618 18.7934 20.0428 18.0535 19.8111 17.3707C19.5794 16.6879 19.1465 16.0961 18.5725 15.6774C17.9985 15.2587 17.3118 15.0337 16.6077 15.0338ZM16.6077 1.46648C16.9961 1.46648 17.3758 1.58476 17.6988 1.80637C18.0218 2.02797 18.2735 2.34295 18.4222 2.71146C18.5708 3.07998 18.6097 3.48548 18.5339 3.8767C18.4581 4.26791 18.2711 4.62727 17.9964 4.90932C17.7218 5.19137 17.3718 5.38344 16.9909 5.46126C16.6099 5.53908 16.215 5.49914 15.8561 5.3465C15.4973 5.19385 15.1905 4.93536 14.9747 4.6037C14.7589 4.27205 14.6437 3.88213 14.6437 3.48325C14.6443 2.94855 14.8514 2.43592 15.2196 2.05783C15.5878 1.67975 16.087 1.46708 16.6077 1.46648ZM3.39563 13.017C3.0072 13.017 2.62749 12.8988 2.30452 12.6772C1.98155 12.4556 1.72982 12.1406 1.58117 11.7721C1.43253 11.4036 1.39363 10.998 1.46941 10.6068C1.54519 10.2156 1.73224 9.85626 2.0069 9.57421C2.28157 9.29216 2.63151 9.10009 3.01248 9.02227C3.39345 8.94445 3.78834 8.98439 4.14721 9.13703C4.50607 9.28968 4.8128 9.54817 5.0286 9.87983C5.2444 10.2115 5.35959 10.6014 5.35959 11.0003C5.35901 11.535 5.15191 12.0476 4.78372 12.4257C4.41553 12.8038 3.91633 13.0165 3.39563 13.017ZM16.6077 20.5341C16.2193 20.5341 15.8396 20.4158 15.5166 20.1942C15.1936 19.9726 14.9419 19.6576 14.7932 19.2891C14.6446 18.9206 14.6057 18.5151 14.6815 18.1239C14.7573 17.7327 14.9443 17.3733 15.219 17.0912C15.4936 16.8092 15.8436 16.6171 16.2246 16.5393C16.6055 16.4615 17.0004 16.5014 17.3593 16.6541C17.7181 16.8067 18.0249 17.0652 18.2407 17.3969C18.4565 17.7285 18.5717 18.1184 18.5717 18.5173C18.5711 19.052 18.364 19.5646 17.9958 19.9427C17.6276 20.3208 17.1284 20.5335 16.6077 20.5341Z" fill="#171C27"/>
</svg>
