<?xml version="1.0" encoding="UTF-8"?>
<svg id="Layer_1" data-name="Layer 1" xmlns="http://www.w3.org/2000/svg" viewBox="0 0 37.63 41.72">
  <defs>
    <style>
      .cls-1 {
        fill: #a3a3a3;
      }
    </style>
  </defs>
  <path class="cls-1" d="m37.58,34.75c-.23-1.04-1.26-1.69-2.29-1.46l-3.01.67-4.26-10.77c-.29-.73-1-1.21-1.79-1.21h-12.85l-.41-4.46h9.8c1.06,0,1.92-.86,1.92-1.92s-.86-1.92-1.92-1.92h-10.15l-.46-4.99c1.85-.53,3.21-2.23,3.21-4.25,0-2.45-1.98-4.43-4.43-4.43s-4.43,1.98-4.43,4.43c0,1.43.68,2.69,1.72,3.5l1.49,16.14c.09.99.92,1.74,1.91,1.74h13.29l4.39,11.08c.29.75,1.01,1.21,1.79,1.21.14,0,.28-.02.42-.05l4.61-1.02c1.04-.23,1.69-1.26,1.46-2.29Z"/>
  <path class="cls-1" d="m14.47,37.87c-5.86,0-10.63-4.77-10.63-10.63,0-3.01,1.26-5.72,3.28-7.66l-.41-4.54C2.68,17.62,0,22.12,0,27.24c0,7.98,6.49,14.47,14.47,14.47,4.84,0,9.11-2.39,11.74-6.05l-1.77-4.78c-1.49,4.07-5.39,6.99-9.97,6.99Z"/>
</svg>