<svg width="59" height="24" viewBox="0 0 59 24" fill="none" xmlns="http://www.w3.org/2000/svg">
<path d="M4.80487 17.6392C4.14862 17.6392 3.56362 17.5265 3.04989 17.3011C2.53948 17.0758 2.13346 16.7625 1.83185 16.3615C1.53356 15.9571 1.37115 15.4882 1.34464 14.9545H2.59748C2.62399 15.2827 2.73668 15.5661 2.93555 15.8047C3.13441 16.04 3.39459 16.2223 3.71609 16.3516C4.03758 16.4808 4.39388 16.5455 4.78498 16.5455C5.22248 16.5455 5.61026 16.4692 5.94833 16.3168C6.2864 16.1643 6.55155 15.9522 6.74379 15.6804C6.93602 15.4086 7.03214 15.0938 7.03214 14.7358C7.03214 14.3613 6.93933 14.0315 6.75373 13.7464C6.56812 13.4581 6.29634 13.2327 5.93839 13.0703C5.58043 12.9079 5.14293 12.8267 4.62589 12.8267H3.81055V11.733H4.62589C5.03024 11.733 5.38488 11.66 5.68981 11.5142C5.99805 11.3684 6.23834 11.1629 6.41069 10.8977C6.58635 10.6326 6.67418 10.321 6.67418 9.96307C6.67418 9.61837 6.59795 9.31842 6.44549 9.06321C6.29303 8.808 6.07759 8.60914 5.79918 8.46662C5.52409 8.3241 5.19928 8.25284 4.82475 8.25284C4.47343 8.25284 4.14199 8.31747 3.83043 8.44673C3.52219 8.57268 3.2703 8.75663 3.07475 8.99858C2.8792 9.23722 2.77314 9.52557 2.75657 9.86364H1.56339C1.58327 9.33002 1.74402 8.86269 2.04563 8.46165C2.34724 8.05729 2.74165 7.74242 3.22887 7.51705C3.7194 7.29167 4.25799 7.17898 4.84464 7.17898C5.47437 7.17898 6.01462 7.30658 6.46538 7.56179C6.91613 7.81368 7.26249 8.14678 7.50444 8.56108C7.74639 8.97538 7.86737 9.42282 7.86737 9.90341C7.86737 10.4768 7.71656 10.9657 7.41495 11.37C7.11666 11.7744 6.71064 12.0545 6.19691 12.2102V12.2898C6.8399 12.3958 7.34203 12.6693 7.7033 13.1101C8.06457 13.5476 8.24521 14.0895 8.24521 14.7358C8.24521 15.2893 8.0944 15.7865 7.79279 16.2273C7.4945 16.6648 7.08683 17.0095 6.56978 17.2614C6.05273 17.5133 5.46443 17.6392 4.80487 17.6392ZM13.6593 17.6392C13.2417 17.6326 12.824 17.553 12.4064 17.4006C11.9888 17.2481 11.6077 16.9912 11.263 16.63C10.9183 16.2654 10.6415 15.7732 10.4327 15.1534C10.2239 14.5303 10.1195 13.7481 10.1195 12.8068C10.1195 11.9053 10.204 11.1065 10.373 10.4105C10.5421 9.71117 10.7873 9.12287 11.1088 8.6456C11.4303 8.16501 11.8181 7.80043 12.2722 7.55185C12.7296 7.30327 13.245 7.17898 13.8184 7.17898C14.3884 7.17898 14.8955 7.29332 15.3397 7.52202C15.7871 7.7474 16.1517 8.06226 16.4334 8.46662C16.7151 8.87098 16.8974 9.33665 16.9803 9.86364H15.7672C15.6545 9.40625 15.4358 9.02675 15.111 8.72514C14.7862 8.42353 14.3553 8.27273 13.8184 8.27273C13.0295 8.27273 12.4081 8.61577 11.954 9.30185C11.5033 9.98793 11.2762 10.9508 11.2729 12.1903H11.3525C11.5381 11.9086 11.7585 11.6683 12.0137 11.4695C12.2722 11.2673 12.5572 11.1115 12.8688 11.0021C13.1803 10.8928 13.5101 10.8381 13.8581 10.8381C14.4415 10.8381 14.9751 10.9839 15.459 11.2756C15.9429 11.5639 16.3307 11.9633 16.6223 12.4737C16.914 12.9808 17.0598 13.5625 17.0598 14.2188C17.0598 14.8485 16.919 15.4252 16.6373 15.9489C16.3555 16.4692 15.9595 16.8835 15.449 17.1918C14.9419 17.4967 14.3453 17.6458 13.6593 17.6392ZM13.6593 16.5455C14.0769 16.5455 14.4514 16.4411 14.7828 16.2322C15.1176 16.0234 15.3811 15.7434 15.5733 15.392C15.7689 15.0407 15.8667 14.6496 15.8667 14.2188C15.8667 13.7978 15.7722 13.415 15.5833 13.0703C15.3977 12.7223 15.1408 12.4455 14.8127 12.2401C14.4879 12.0346 14.1167 11.9318 13.699 11.9318C13.3842 11.9318 13.0909 11.9948 12.8191 12.1207C12.5473 12.2434 12.3087 12.4124 12.1032 12.6278C11.901 12.8433 11.7419 13.0902 11.6259 13.3686C11.5099 13.6437 11.4519 13.9337 11.4519 14.2386C11.4519 14.643 11.5463 15.0208 11.7353 15.3722C11.9275 15.7235 12.1893 16.0069 12.5208 16.2223C12.8555 16.4377 13.235 16.5455 13.6593 16.5455ZM22.3359 17.6392C21.5869 17.6392 20.9489 17.4354 20.4219 17.0277C19.8949 16.6167 19.4922 16.0218 19.2138 15.2429C18.9354 14.4607 18.7962 13.5161 18.7962 12.4091C18.7962 11.3087 18.9354 10.3691 19.2138 9.5902C19.4955 8.808 19.8999 8.21141 20.4268 7.80043C20.9571 7.38613 21.5935 7.17898 22.3359 7.17898C23.0784 7.17898 23.7131 7.38613 24.2401 7.80043C24.7704 8.21141 25.1747 8.808 25.4531 9.5902C25.7348 10.3691 25.8757 11.3087 25.8757 12.4091C25.8757 13.5161 25.7365 14.4607 25.4581 15.2429C25.1797 16.0218 24.777 16.6167 24.25 17.0277C23.723 17.4354 23.085 17.6392 22.3359 17.6392ZM22.3359 16.5455C23.0784 16.5455 23.6551 16.1875 24.0661 15.4716C24.477 14.7557 24.6825 13.7348 24.6825 12.4091C24.6825 11.5275 24.5881 10.7768 24.3991 10.157C24.2135 9.53717 23.9451 9.06487 23.5938 8.74006C23.2457 8.41525 22.8265 8.25284 22.3359 8.25284C21.6001 8.25284 21.0251 8.61577 20.6108 9.34162C20.1965 10.0642 19.9893 11.0866 19.9893 12.4091C19.9893 13.2907 20.0821 14.0398 20.2678 14.6562C20.4534 15.2727 20.7202 15.7417 21.0682 16.0632C21.4195 16.3847 21.8421 16.5455 22.3359 16.5455ZM27.4865 10.3608V9.82386C27.4865 9.35322 27.5826 8.93561 27.7749 8.57102C27.9671 8.20644 28.2405 7.91974 28.5952 7.71094C28.9498 7.50213 29.3691 7.39773 29.853 7.39773C30.5888 7.39773 31.1671 7.62642 31.5881 8.08381C32.009 8.53788 32.2195 9.1179 32.2195 9.82386V10.3608C32.2195 10.8314 32.125 11.2474 31.9361 11.6087C31.7472 11.9699 31.477 12.2533 31.1257 12.4588C30.7744 12.6643 30.3568 12.767 29.8729 12.767C29.1371 12.767 28.5554 12.5433 28.1278 12.0959C27.7003 11.6451 27.4865 11.0668 27.4865 10.3608ZM28.6797 9.82386V10.3608C28.6797 10.7685 28.7791 11.1065 28.978 11.375C29.1768 11.6402 29.4751 11.7727 29.8729 11.7727C30.2607 11.7727 30.549 11.6402 30.7379 11.375C30.9302 11.1065 31.0263 10.7685 31.0263 10.3608V9.82386C31.0263 9.42614 30.9302 9.09138 30.7379 8.8196C30.5457 8.54782 30.2507 8.41193 29.853 8.41193C29.4652 8.41193 29.1719 8.54782 28.973 8.8196C28.7775 9.09138 28.6797 9.42614 28.6797 9.82386Z" fill="#171C27"/>
<path d="M47 6C41.3 6 37 8.15 37 11C37 13.45 40.19 15.38 44.71 15.88L44.29 16.29C44.1963 16.383 44.1219 16.4936 44.0711 16.6154C44.0203 16.7373 43.9942 16.868 43.9942 17C43.9942 17.132 44.0203 17.2627 44.0711 17.3846C44.1219 17.5064 44.1963 17.617 44.29 17.71C44.383 17.8037 44.4936 17.8781 44.6154 17.9289C44.7373 17.9797 44.868 18.0058 45 18.0058C45.132 18.0058 45.2627 17.9797 45.3846 17.9289C45.5064 17.8781 45.617 17.8037 45.71 17.71L47.71 15.71C47.801 15.6149 47.8724 15.5028 47.92 15.38C48.02 15.1365 48.02 14.8635 47.92 14.62C47.8724 14.4972 47.801 14.3851 47.71 14.29L45.71 12.29C45.5217 12.1017 45.2663 11.9959 45 11.9959C44.7337 11.9959 44.4783 12.1017 44.29 12.29C44.1017 12.4783 43.9959 12.7337 43.9959 13C43.9959 13.2663 44.1017 13.5217 44.29 13.71L44.41 13.82C41 13.34 39 12 39 11C39 9.78 42.12 8 47 8C51.88 8 55 9.78 55 11C55 11.83 53.55 13 50.79 13.6C50.6594 13.625 50.535 13.6759 50.4243 13.7495C50.3135 13.8232 50.2186 13.9182 50.145 14.0291C50.0715 14.1399 50.0207 14.2643 49.9958 14.3949C49.9709 14.5256 49.9724 14.6599 50 14.79C50.0273 14.9188 50.0798 15.041 50.1544 15.1495C50.2291 15.258 50.3244 15.3507 50.435 15.4222C50.5456 15.4938 50.6692 15.5428 50.7988 15.5664C50.9283 15.5901 51.0613 15.5879 51.19 15.56C54.84 14.76 57 13.06 57 11C57 8.15 52.7 6 47 6Z" fill="#171C27"/>
</svg>
