<svg width="25" height="28" viewBox="0 0 25 28" fill="none" xmlns="http://www.w3.org/2000/svg">
<path d="M17.1551 8.50005L23.25 8.50005L23.25 7.00005L17.1551 7.00005C16.9887 6.35605 16.6131 5.78558 16.0873 5.3783C15.5614 4.97101 14.9151 4.75 14.25 4.75C13.5849 4.75 12.9386 4.97101 12.4127 5.3783C11.8869 5.78558 11.5113 6.35605 11.3449 7.00005L0.750002 7.00005L0.750002 8.50005L11.3449 8.50005C11.5113 9.14405 11.8869 9.71452 12.4127 10.1218C12.9386 10.5291 13.5849 10.7501 14.25 10.7501C14.9151 10.7501 15.5614 10.5291 16.0873 10.1218C16.6131 9.71452 16.9887 9.14405 17.1551 8.50005ZM12.75 7.75005C12.75 7.45338 12.838 7.16337 13.0028 6.9167C13.1676 6.67002 13.4019 6.47777 13.676 6.36423C13.9501 6.2507 14.2517 6.221 14.5426 6.27888C14.8336 6.33675 15.1009 6.47961 15.3107 6.68939C15.5204 6.89917 15.6633 7.16645 15.7212 7.45742C15.7791 7.74839 15.7494 8.04999 15.6358 8.32408C15.5223 8.59817 15.33 8.83244 15.0834 8.99726C14.8367 9.16208 14.5467 9.25005 14.25 9.25005C13.8523 9.24961 13.471 9.09143 13.1898 8.81022C12.9086 8.52901 12.7504 8.14774 12.75 7.75005Z" fill="#171C27"/>
<path d="M10.4051 16.5001L23.25 16.5001L23.25 15.0001L10.4051 15.0001C10.2387 14.3561 9.86312 13.7856 9.33727 13.3783C8.81142 12.971 8.16514 12.75 7.5 12.75C6.83487 12.75 6.18859 12.971 5.66273 13.3783C5.13688 13.7856 4.76126 14.3561 4.59492 15.0001L0.750002 15.0001L0.750002 16.5001L4.59492 16.5001C4.76126 17.1441 5.13688 17.7145 5.66273 18.1218C6.18859 18.5291 6.83487 18.7501 7.5 18.7501C8.16514 18.7501 8.81142 18.5291 9.33727 18.1218C9.86312 17.7145 10.2387 17.1441 10.4051 16.5001ZM6 15.7501C6 15.4534 6.08797 15.1634 6.2528 14.9167C6.41762 14.67 6.65189 14.4778 6.92598 14.3642C7.20007 14.2507 7.50167 14.221 7.79264 14.2789C8.08361 14.3368 8.35088 14.4796 8.56066 14.6894C8.77044 14.8992 8.9133 15.1664 8.97118 15.4574C9.02906 15.7484 8.99935 16.05 8.88582 16.3241C8.77229 16.5982 8.58003 16.8324 8.33336 16.9973C8.08668 17.1621 7.79667 17.2501 7.5 17.2501C7.10231 17.2496 6.72104 17.0914 6.43983 16.8102C6.15863 16.529 6.00045 16.1477 6 15.7501Z" fill="#171C27"/>
<path d="M20.1551 24.5001L23.25 24.5001L23.25 23.0001L20.1551 23.0001C19.9887 22.3561 19.6131 21.7856 19.0873 21.3783C18.5614 20.971 17.9151 20.75 17.25 20.75C16.5849 20.75 15.9386 20.971 15.4127 21.3783C14.8869 21.7856 14.5113 22.3561 14.3449 23.0001L0.750002 23.0001L0.750002 24.5001L14.3449 24.5001C14.5113 25.1441 14.8869 25.7145 15.4127 26.1218C15.9386 26.5291 16.5849 26.7501 17.25 26.7501C17.9151 26.7501 18.5614 26.5291 19.0873 26.1218C19.6131 25.7145 19.9887 25.1441 20.1551 24.5001ZM15.75 23.7501C15.75 23.4534 15.838 23.1634 16.0028 22.9167C16.1676 22.67 16.4019 22.4778 16.676 22.3642C16.9501 22.2507 17.2517 22.221 17.5426 22.2789C17.8336 22.3368 18.1009 22.4796 18.3107 22.6894C18.5204 22.8992 18.6633 23.1664 18.7212 23.4574C18.7791 23.7484 18.7494 24.05 18.6358 24.3241C18.5223 24.5982 18.33 24.8324 18.0834 24.9973C17.8367 25.1621 17.5467 25.2501 17.25 25.2501C16.8523 25.2496 16.471 25.0914 16.1898 24.8102C15.9086 24.529 15.7504 24.1477 15.75 23.7501Z" fill="#171C27"/>
<circle cx="21.25" cy="3" r="3" fill="#F05A5C"/>
</svg>
